<?xml version="1.0" encoding="utf-8"?>
<!-- Generator: Adobe Illustrator 19.2.1, SVG Export Plug-In . SVG Version: 6.00 Build 0)  -->
<svg version="1.1" id="Layer_1" xmlns="http://www.w3.org/2000/svg" xmlns:xlink="http://www.w3.org/1999/xlink" x="0px" y="0px"
	 viewBox="0 0 174.5521698 59.7096977" enable-background="new 0 0 174.5521698 59.7096977" xml:space="preserve">
<path d="M90.776474,2.5714846h2.2659988L99.0704727,17.99049h-2.2689972l-1.6860046-4.643981h-6.5209961l-1.7269974,4.643981
	h-2.1160049L90.776474,2.5714846z M89.241478,11.6194582h5.2269974l-2.5709991-7.1919556h-0.0419998L89.241478,11.6194582z"/>
<g>
	<path d="M108.9796753,17.9901848h-1.730011v-1.7709961h-0.0410004c-0.7789917,1.3830566-2.0299988,2.0300293-3.6289978,2.0300293
		c-2.9369965,0-3.8439941-1.684021-3.8439941-4.0809927V6.8252077h1.8359985v7.5579834
		c0,1.3610229,0.8629913,2.2470083,2.2669983,2.2470083c2.223999,0,3.3049927-1.4909658,3.3049927-3.4989614V6.8252077h1.8360138
		V17.9901848z"/>
	<path d="M112.3255768,14.4701662c0.0639954,1.6420279,1.4889984,2.1600332,3.0009918,2.1600332
		c1.1439972,0,2.6990051-0.2600098,2.6990051-1.6630239c0-1.4259644-1.8140106-1.6629639-3.6500092-2.0739746
		c-1.8129883-0.4100342-3.6499939-1.0139771-3.6499939-3.1530151c0-2.2459717,2.223999-3.1749878,4.1679993-3.1749878
		c2.4629974,0,4.4279938,0.7780151,4.5789948,3.4990234h-1.8349915c-0.1309967-1.4250488-1.3840027-1.8780518-2.5930023-1.8780518
		c-1.102005,0-2.3760071,0.302002-2.3760071,1.4250488c0,1.3169556,1.9450073,1.532959,3.6500092,1.9439697
		c1.8359985,0.4089966,3.651001,1.0140381,3.651001,3.1740112c0,2.6569815-2.4830017,3.5200186-4.7510071,3.5200186
		c-2.5059967,0-4.6230011-1.0150146-4.7299957-3.7790518H112.3255768z"/>
	<path d="M124.1130676,6.8250856h2.2249908v1.6200562h-2.2249908v6.9329834c0,0.8410025,0.2379913,0.9920034,1.3829956,0.9920034
		h0.8419952v1.6199951h-1.4029999c-1.901001,0-2.6560059-0.3880005-2.6560059-2.4409781V8.4451418h-1.9009857V6.8250856h1.9009857
		V3.4771242h1.8340149V6.8250856z"/>
	<path d="M128.1929779,6.8250856h1.7299957v2.3540039h0.0410004c0.8869934-1.7929688,2.1169891-2.6779785,4.1049957-2.6129761
		v1.9440308c-2.9600067,0-4.0399933,1.68396-4.0399933,4.5139771v4.9660025h-1.8359985V6.8250856z"/>
	<path d="M144.9088593,17.9475212c-0.3249969,0.1940308-0.7350006,0.302002-1.3170013,0.302002
		c-0.9519958,0-1.5549927-0.5180054-1.5549927-1.7279663c-1.0160065,1.1879883-2.378006,1.7279663-3.9329987,1.7279663
		c-2.0279999,0-3.6910095-0.9069824-3.6910095-3.1320181c0-2.5269775,1.8790131-3.0669556,3.7779999-3.4329834
		c2.0320129-0.3889771,3.7580109-0.2589722,3.7580109-1.6419678c0-1.5980225-1.3180084-1.8569946-2.4820099-1.8569946
		c-1.5549927,0-2.7019958,0.4749756-2.7869873,2.1169434h-1.8360138c0.1080017-2.7649536,2.2460022-3.7369995,4.730011-3.7369995
		c2.0079956,0,4.1900024,0.4540405,4.1900024,3.0670166v5.7449951c0,0.8630362,0,1.2520132,0.5839996,1.2520132
		c0.151001,0,0.321991-0.0219727,0.5609894-0.1079712V17.9475212z M141.9278717,12.2244997
		c-0.7130127,0.5180054-2.0950012,0.5390015-3.326004,0.7550049c-1.2080078,0.2160034-2.2460022,0.6480103-2.2460022,2.0090332
		c0,1.2089834,1.0379944,1.6409903,2.1600037,1.6409903c2.4179993,0,3.4120026-1.512023,3.4120026-2.526V12.2244997z"/>
	<rect x="146.2880707" y="2.5714846" width="1.8359985" height="15.4190063"/>
	<path d="M151.9440765,4.8164797h-1.8339996V2.570508h1.8339996V4.8164797z M150.1100769,6.8254519h1.8339996v11.1649771h-1.8339996
		V6.8254519z"/>
	<path d="M164.039566,17.9475212c-0.3259888,0.1940308-0.7359924,0.302002-1.3199921,0.302002
		c-0.9499969,0-1.5540009-0.5180054-1.5540009-1.7279663c-1.0149994,1.1879883-2.3760071,1.7279663-3.9309998,1.7279663
		c-2.0299988,0-3.6920013-0.9069824-3.6920013-3.1320181c0-2.5269775,1.8789978-3.0669556,3.7789917-3.4329834
		c2.0320129-0.3889771,3.7570038-0.2589722,3.7570038-1.6419678c0-1.5980225-1.3159943-1.8569946-2.4819946-1.8569946
		c-1.5559998,0-2.701004,0.4749756-2.7859955,2.1169434h-1.8370056c0.1080017-2.7649536,2.246994-3.7369995,4.7299957-3.7369995
		c2.0100098,0,4.1900024,0.4540405,4.1900024,3.0670166v5.7449951c0,0.8630362,0,1.2520132,0.5820007,1.2520132
		c0.1519928,0,0.3249969-0.0219727,0.5639954-0.1079712V17.9475212z M161.0585785,12.2244997
		c-0.7140045,0.5180054-2.0960083,0.5390015-3.3270111,0.7550049c-1.2070007,0.2160034-2.2460022,0.6480103-2.2460022,2.0090332
		c0,1.2089834,1.0390015,1.6409903,2.1600037,1.6409903c2.4179993,0,3.4130096-1.512023,3.4130096-2.526V12.2244997z"/>
	<path d="M165.3101807,6.8250856h1.7269897v1.7700195h0.0440063c0.7769928-1.382019,2.0299988-2.0289917,3.6279907-2.0289917
		c2.9380035,0,3.8430023,1.684021,3.8430023,4.0820313v7.341979h-1.8349915v-7.5579824
		c0-1.3610229-0.8619995-2.2460327-2.2649994-2.2460327c-2.2260132,0-3.3059998,1.4899902-3.3059998,3.4979858v6.3060293h-1.8359985
		V6.8250856z"/>
	<polygon points="85.6578751,21.1943474 87.8388748,21.1943474 95.9588699,33.6993523 96.0028687,33.6993523 96.0028687,21.1943474 
		97.9458694,21.1943474 97.9458694,36.6153679 95.6998749,36.6153679 87.6448746,24.2393913 87.6008682,24.2393913 
		87.6008682,36.6153679 85.6578751,36.6153679 	"/>
	<path d="M110.3178558,36.5713005c-0.3239899,0.1939697-0.7350006,0.3029785-1.3170013,0.3029785
		c-0.9509888,0-1.5540009-0.5189819-1.5540009-1.7290039c-1.0169983,1.1879883-2.3769989,1.7290039-3.9309998,1.7290039
		c-2.0309906,0-3.6940002-0.90802-3.6940002-3.132019c0-2.5269775,1.8790131-3.0669556,3.780014-3.4329834
		c2.0309906-0.3900146,3.7569885-0.2600098,3.7569885-1.6419678c0-1.598999-1.3159943-1.8580322-2.4830017-1.8580322
		c-1.5549927,0-2.6989899,0.4750366-2.7859955,2.1170044h-1.8359985c0.1089935-2.7639771,2.2460022-3.7360229,4.7310028-3.7360229
		c2.0079956,0,4.1880035,0.4530029,4.1880035,3.06604v5.7449951c0,0.8649902,0,1.2520142,0.5849915,1.2520142
		c0.1500092,0,0.322998-0.0209961,0.5599976-0.1080322V36.5713005z M107.3368683,30.8492546
		c-0.7110138,0.5170288-2.0940094,0.5390015-3.3240051,0.7540283c-1.2100067,0.2160034-2.2470093,0.6489868-2.2470093,2.0100098
		c0,1.2080078,1.0370026,1.6400146,2.1600037,1.6400146c2.4190063,0,3.4110107-1.5110474,3.4110107-2.526001V30.8492546z"/>
	<path d="M114.1377716,25.448864h2.2259979v1.6190186h-2.2259979v6.9329834c0,0.842041,0.2379913,0.9940186,1.3829956,0.9940186
		h0.8430023v1.6199951h-1.404007c-1.901001,0-2.6569977-0.3889771-2.6569977-2.440979v-7.1060181h-1.8999939V25.448864h1.8999939
		v-3.3469849h1.8350067V25.448864z"/>
	<path d="M119.9020691,23.4404411h-1.8359985v-2.2459717h1.8359985V23.4404411z M118.0660706,25.4484978h1.8359985v11.1660156
		h-1.8359985V25.4484978z"/>
	<path d="M126.705368,25.1897087c3.5409851,0,5.4199982,2.5700073,5.4199982,5.8519897
		c0,3.2609863-1.8790131,5.8320313-5.4199982,5.8320313c-3.5430145,0-5.4220123-2.5710449-5.4220123-5.8320313
		C121.2833557,27.759716,123.1623535,25.1897087,126.705368,25.1897087 M126.705368,35.2536736
		c1.92099,0,3.4769897-1.5119629,3.4769897-4.2119751c0-2.7210083-1.5559998-4.2319946-3.4769897-4.2319946
		c-1.9230042,0-3.4780121,1.5109863-3.4780121,4.2319946C123.227356,33.7417107,124.7823639,35.2536736,126.705368,35.2536736"/>
	<path d="M133.7427673,25.448864h1.7289886v1.7710571h0.0420074c0.7779999-1.382019,2.0319977-2.0300293,3.6279907-2.0300293
		c2.9380035,0,3.8450012,1.6849976,3.8450012,4.0820313v7.3429565h-1.8359985v-7.55896
		c0-1.3610229-0.8629913-2.2460327-2.2669983-2.2460327c-2.223999,0-3.3059998,1.4899902-3.3059998,3.4990234v6.3059692h-1.8349915
		V25.448864z"/>
	<path d="M154.668457,36.5713005c-0.3249969,0.1939697-0.7339935,0.3029785-1.3170013,0.3029785
		c-0.9519958,0-1.5559998-0.5189819-1.5559998-1.7290039c-1.0149994,1.1879883-2.3769989,1.7290039-3.9319916,1.7290039
		c-2.0279999,0-3.6910095-0.90802-3.6910095-3.132019c0-2.5269775,1.878006-3.0669556,3.780014-3.4329834
		c2.0299988-0.3900146,3.7569885-0.2600098,3.7569885-1.6419678c0-1.598999-1.3190002-1.8580322-2.4830017-1.8580322
		c-1.5549927,0-2.6999969,0.4750366-2.7869873,2.1170044h-1.8350067c0.1069946-2.7639771,2.2460022-3.7360229,4.7290039-3.7360229
		c2.0090027,0,4.1900024,0.4530029,4.1900024,3.06604v5.7449951c0,0.8649902,0,1.2520142,0.5839996,1.2520142
		c0.1499939,0,0.322998-0.0209961,0.5609894-0.1080322V36.5713005z M151.6874695,30.8492546
		c-0.7130127,0.5170288-2.0940094,0.5390015-3.3240051,0.7540283c-1.2100067,0.2160034-2.2480011,0.6489868-2.2480011,2.0100098
		c0,1.2080078,1.0379944,1.6400146,2.1589966,1.6400146c2.4190063,0,3.4130096-1.5110474,3.4130096-2.526001V30.8492546z"/>
	<rect x="156.0480804" y="21.1944695" width="1.8350067" height="15.4210205"/>
	<path d="M97.9888763,49.6660576c0,3.8880005-2.2230072,5.9390259-6.0680008,5.9390259
		c-3.9729996,0-6.3280029-1.835022-6.3280029-5.9390259v-9.8479919h2.052002v9.8479919
		c0,2.7220154,1.5559998,4.2120056,4.276001,4.2120056c2.5919952,0,4.0159988-1.4899902,4.0159988-4.2120056v-9.8479919h2.052002
		V49.6660576z"/>
	<path d="M99.9957733,44.072155h1.7269897v1.7720032h0.0429993c0.7770081-1.3829956,2.0319977-2.0299988,3.628006-2.0299988
		c2.9380035,0,3.845993,1.684021,3.845993,4.0810242v7.3429871h-1.8379974v-7.5589905
		c0-1.3610229-0.8629913-2.2470093-2.2669983-2.2470093c-2.2230072,0-3.3040009,1.4909973-3.3040009,3.4989929v6.3070068h-1.8349915
		V44.072155z"/>
	<path d="M112.9710693,42.0634575h-1.8339996v-2.2460022h1.8339996V42.0634575z M111.1370697,44.0724602h1.8339996v11.1660156
		h-1.8339996V44.0724602z"/>
	<polygon points="120.4226685,55.2383842 118.4576569,55.2383842 114.3106537,44.0723991 116.3626556,44.0723991 
		119.4926605,53.3804131 119.5356598,53.3804131 122.581665,44.0723991 124.5046539,44.0723991 	"/>
	<path d="M134.4785614,51.6960869c-0.4960022,2.4620056-2.2649994,3.8009949-4.772995,3.8009949
		c-3.5619965,0-5.2460022-2.4620056-5.3549957-5.8739929c0-3.3470154,2.2029877-5.8089905,5.2489929-5.8089905
		c3.9519958,0,5.1609955,3.6919861,5.0529938,6.3919983h-8.3589935c-0.0639954,1.9440002,1.0379944,3.6719971,3.477005,3.6719971
		c1.5130005,0,2.571991-0.7350159,2.8959961-2.1820068H134.4785614z M132.7085724,48.586071
		c-0.0860138-1.7489929-1.4030151-3.1539917-3.2180023-3.1539917c-1.9210052,0-3.0670013,1.4490051-3.1970062,3.1539917H132.7085724
		z"/>
	<path d="M136.0544739,44.072155h1.7269897v2.3540039h0.0420074c0.8860016-1.7919922,2.1179962-2.6779785,4.1049957-2.6119995
		v1.9430237c-2.9589996,0-4.0390015,1.6849976-4.0390015,4.5139771v4.9670105h-1.8349915V44.072155z"/>
	<path d="M144.4309692,51.7172661c0.0659943,1.6420288,1.4909973,2.1610107,3.0029907,2.1610107
		c1.1450043,0,2.6999969-0.2600098,2.6999969-1.6650085c0-1.4239807-1.8159943-1.6609802-3.6499939-2.071991
		c-1.8139954-0.4100037-3.651001-1.0140076-3.651001-3.1529846c0-2.2470093,2.2259979-3.1740112,4.1679993-3.1740112
		c2.4640045,0,4.4290009,0.7770081,4.5789948,3.4989929h-1.8369904c-0.1289978-1.4259949-1.3800049-1.8809814-2.5900116-1.8809814
		c-1.0999908,0-2.375,0.3029785-2.375,1.4259949c0,1.3190002,1.9430084,1.5329895,3.6490021,1.9440002
		c1.8359985,0.4089966,3.651001,1.0149841,3.651001,3.1739807c0,2.6570129-2.4839935,3.5210266-4.7519989,3.5210266
		c-2.5049896,0-4.6210022-1.0140076-4.7290039-3.7800293H144.4309692z"/>
	<path d="M155.184082,42.0634575h-1.8350067v-2.2460022h1.8350067V42.0634575z M153.3490753,44.0724602h1.8350067v11.1660156
		h-1.8350067V44.0724602z"/>
	<path d="M160.1508789,44.072155h2.223999v1.6210022h-2.223999v6.9330139c0,0.8410034,0.2379913,0.9920044,1.3809967,0.9920044
		h0.8430023v1.6199951h-1.4029999c-1.9000092,0-2.6570129-0.3890076-2.6570129-2.4410095v-7.1040039h-1.901001V44.072155h1.901001
		v-3.3469849h1.8360138V44.072155z"/>
	<path d="M168.7881775,56.7286797c-0.8440094,2.1810303-1.6000061,2.9810181-3.2400055,2.9810181
		c-0.4320068,0-0.8630066-0.0450134-1.276001-0.1960144v-1.6849976c0.3479919,0.1090088,0.7160034,0.2600098,1.0820007,0.2600098
		c0.7550049,0,1.1649933-0.3670044,1.5119934-1.0140076l0.756012-1.9020081l-4.428009-11.1009827h2.072998l3.2610016,9.1369934
		h0.0420074l3.1329956-9.1369934h1.9440002L168.7881775,56.7286797z"/>
	<path fill="#7B5A3E" d="M74.5248718,46.4869804c-0.0240021-0.026001-2.4700012-2.4339905-4.5599976-3.4379883
		c-1-0.4790039-1.814003-0.8250122-2.6420059-1.0549927c0.2200012-0.4490051,0.4410019-0.8979797,0.6550064-1.3329773
		c1.5479965-3.1130371,2.8839951-5.8040161,2.3059998-7.5889893c-0.0279999-0.0870361-0.0730057-0.1760254-0.1110001-0.2660522
		l0.0039978-0.0029907c-0.0060043-0.0109863-0.0139999-0.0239868-0.0210037-0.0349731
		c-0.2289963-0.5090332-0.6110001-1.0530396-1.0619965-1.4849854c-0.8239975-0.7870483-2.9000015-1.934021-4.0169983-2.5510254
		l-0.3450012-0.190979c-0.9560013-0.5360107-2.0490036-0.5750122-3.1569977-0.1140137
		c-2.0480042,0.8519897-3.6960068,3.1699829-4.0530014,4.447998c-0.5910034,2.1240234,0.409996,2.802002,0.5219955,2.867981
		l2.2420044,1.3930054l-2.4869995,5.9089966c-2.5999985,0.8899841-5.3560028,2.0929871-8.0670013,3.2770081
		c-3.7430038,1.6349792-7.2799988,3.1819763-10.1930008,3.8320007l-0.237999,0.0549927
		c-0.3000031,0.0690002-0.6409988,0.1499939-1.1399994,0.2139893c-0.4440002,0.0540161-0.6839981,0.0660095-0.8280029,0.0660095
		h-0.0209961c-0.0960007,0.0010071-0.314003-0.0029907-0.8219986-0.0660095
		c-0.4990005-0.0639954-0.840004-0.144989-1.1399994-0.2149963l-0.2370033-0.0539856
		c-2.9139977-0.6500244-6.4510002-2.1970215-10.1940002-3.8320007c-2.7109985-1.184021-5.4679985-2.3870239-8.0669975-3.2770081
		l-2.4860001-5.907959l2.2410011-1.394043l0.0639992-0.0479736c0.0480003-0.0440063,1.1590004-1.098999,0.4409981-2.8670044
		c-0.5680008-1.3959961-2.3509979-3.7940063-4.3729973-4.5029907c-0.993-0.3480225-1.9420013-0.276001-2.821003,0.2160034
		l-0.343998,0.190979c-1.1170006,0.6170044-3.1940002,1.7639771-4.0169983,2.5510254
		c-0.4520035,0.4319458-0.8330002,0.9759521-1.0620041,1.4849854c-0.0069962,0.0109863-0.0149994,0.0239868-0.0219955,0.0349731
		l0.0049973,0.0029907c-0.0390015,0.0900269-0.0839996,0.1810303-0.1110001,0.2660522
		c-0.5790024,1.7849731,0.7569962,4.4749756,2.3050003,7.5889893c0.2160034,0.4329834,0.435997,0.8839722,0.6559982,1.3329773
		c-0.8290024,0.2299805-1.6429977,0.5759888-2.6409988,1.0549927c-2.0920029,1.0039978-4.538002,3.4119873-4.560997,3.4379883
		c-0.1399994,0.1380005-0.1660004,0.3529968-0.064003,0.5220032c0.0130005,0.0200195,1.2529984,2.0680237,1.6360016,3.4830017
		c0.3899994,1.4510193,0.2939987,3.7330017,0.2519989,4.4370117c-0.0149994,0.0889893-0.0179977,0.1730042-0.0139999,0.2550049
		H1.933876c0,0.0050049,0.0009995,0.0099792,0.0009995,0.0159912c0,0.0039978-0.0009995,0.0079956-0.0009995,0.0130005
		s0.0029984,0.0079956,0.0039978,0.0119934c0.0250015,0.8900146,0.8040009,1.7619934,2.1030045,2.3399963
		c0.8610001,0.3829956,1.9209976,0.6260071,2.9959946,0.6260071c1.3220024,0,2.6660004-0.3670044,3.6920013-1.2879944v0.0010071
		c0.0009995-0.0010071,0.0050011-0.0039978,0.0050011-0.006012c0.0009995-0.0010071,0.0019989-0.0010071,0.0029984-0.0010071
		c0.0060005-0.0050049,0.012001-0.0099792,0.0219994-0.0209961c0.2340012-0.2099915,2.5610008-2.2709961,6.0500031-4.0589905
		c0.3379974,0.1560059,0.6809998,0.3200073,1.0349998,0.4970093l0.1639977,0.0789795
		C19.3618736,54.0369987,24.140873,56.257,28.770874,57.8289909c4.362999,1.4830017,7.4970016,1.6660156,8.3639984,1.6860046
		h0.3809967h0.0100021c0.8570023-0.019989,3.9909973-0.2030029,8.3529968-1.6860046
		c4.6310043-1.571991,9.4090042-3.7919922,10.7630005-4.4360046l0.1650009-0.0789795
		c0.3530045-0.177002,0.6969986-0.3410034,1.0350037-0.4970093c3.4889984,1.7879944,5.8170013,3.8509827,6.048996,4.0589905
		c0.0110016,0.0110168,0.0170059,0.0159912,0.0230026,0.0209961c0,0,0.0019989,0,0.0019989,0.0010071
		c0.0009995,0.0020142,0.0039978,0.0050049,0.0060043,0.006012v-0.0010071
		c1.0259933,0.92099,2.3689957,1.2879944,3.6909943,1.2879944c1.0750046,0,2.1360016-0.2430115,2.9960022-0.6260071
		c1.298996-0.5780029,2.0800018-1.4499817,2.1039963-2.3399963c0.0009995-0.0039978,0.003006-0.0069885,0.003006-0.0119934
		v-0.0130005c0-0.006012,0.0009995-0.0109863,0.0009995-0.0159912h-0.0019989
		c0.0039978-0.0820007,0.0009995-0.1660156-0.0139999-0.2550049c-0.0419998-0.70401-0.1389999-2.9859924,0.2519989-4.4360046
		c0.3829956-1.4159851,1.6230011-3.4639893,1.6349945-3.4840088C74.6908722,46.8399773,74.6648712,46.6249809,74.5248718,46.4869804
		 M58.3428726,33.1040154c0.3099976-1.1119995,1.8509979-3.1799927,3.5599976-3.8920288
		c0.8690033-0.3609619,1.6819992-0.3379517,2.4140015,0.0720215l0.3479996,0.1929932
		c0.9000015,0.4970093,2.6610031,1.4710083,3.5569992,2.1820068c-0.3949966-0.0170288-0.8409958,0.0510254-1.3420029,0.2540283
		c-2.4149933,0.9769897-4.5649948,3.7369995-4.5649948,5.2279663c0,0.098999,0.0130005,0.1799927,0.0199966,0.2680054
		l-3.8339996-2.3829956C58.4958725,35.0230217,57.9268723,34.5940056,58.3428726,33.1040154 M63.5328751,38.1530266
		c-0.0350037-0.019043-0.3660049-0.210022-0.3660049-1.0120239c0-0.414978,0.2740021-1.0369873,0.7340012-1.6950073
		l1.4680023,0.8900146c0.0130005,0.1309814,0.0130005,0.3309937-0.0450058,0.5460205
		c-0.1589966,0.5679932-0.7559967,1.3529663-1.5499954,1.3249512
		C63.7048721,38.2039909,63.5768738,38.1740227,63.5328751,38.1530266 M61.0168686,37.593029l2.0310059,1.2609863
		c0,0,0.0019989,0.0009766,0.0029984,0.0039673l0.0089951,0.0050049c0.003006,0.0010376,0.0060043,0.0020142,0.0080032,0.0029907
		c0.0790024,0.0500488,0.1419983,0.0770264,0.163002,0.0840454c0.197998,0.0769653,0.427002,0.1049805,0.512001,0.1079712
		c1.1940002,0.0629883,2.1279984-0.9710083,2.4009933-1.947998c0.1640015-0.5880127,0.0410004-1.0889893,0.0270004-1.1450195
		l-0.0439987-0.164978l-1.6959991-1.0289917c0.7280045-0.8359985,1.7070007-1.6380005,2.7689972-2.0690308
		c1.3960037-0.5679932,2.0480042,0.2330322,2.2020035,0.4650269c0.0230026,0.0560303,0.0540009,0.1160278,0.0719986,0.1690063
		c0.4720001,1.4539795-0.7939987,4-2.2579956,6.9459839c-0.2460022,0.4979858-0.4990005,1.007019-0.75,1.5239868
		c-0.5870056-0.1019897-1.2070007-0.1559448-1.9330063-0.1559448c-1.6959991,0-3.621994,0.4089661-5.6639938,1.0459595
		L61.0168686,37.593029z M9.9848747,29.4770012l0.3479996-0.1929932c0.6669998-0.3729858,1.3619995-0.4229736,2.125-0.1560059
		c1.8380013,0.6450195,3.4239998,2.9370117,3.8650017,4.0209961c0.4469986,1.098999-0.0890007,1.7680054-0.2089996,1.8980103
		l-3.7990036,2.3629761c0.0090027-0.0889893,0.0210037-0.1699829,0.0210037-0.2689819
		c0-1.4909668-2.151001-4.2509766-4.5660019-5.2279663c-0.5-0.2030029-0.9469986-0.2710571-1.3420029-0.2540283
		C7.322876,30.9500237,9.0858765,29.9740105,9.9848747,29.4770012 M11.119873,38.1540031
		c-0.0399971,0.0200195-0.1739998,0.0499878-0.243,0.0529785c-0.8149986,0.026001-1.3909988-0.7579956-1.5499992-1.3249512
		c-0.0589981-0.2150269-0.0579987-0.4150391-0.0459976-0.5460205l1.468998-0.8900146
		c0.4589996,0.65802,0.7330017,1.2800293,0.7330017,1.6950073c0,0.7080078-0.2560005,0.9390259-0.3310013,0.992981
		L11.119873,38.1540031z M7.433876,40.2810173c-1.4640045-2.9459839-2.7290039-5.4910278-2.2570038-6.9450073
		c0.0170059-0.0529785,0.0480042-0.1119995,0.0719986-0.1690063c0.1530075-0.2310181,0.8050003-1.0299683,2.2020035-0.4650269
		c1.0620003,0.4310303,2.0410004,1.2330322,2.769001,2.0690308l-1.6959991,1.0289917l-0.0440025,0.164978
		c-0.0149994,0.0560303-0.1369972,0.5570068,0.0270004,1.1450195c0.2719994,0.9769897,1.2140007,2.0100098,2.401001,1.947998
		c0.0880013-0.0039673,0.3339996-0.0349731,0.5270004-0.1149902c0.0209999-0.007019,0.0550003-0.0250244,0.0999985-0.0499878
		c0.012001-0.0059814,0.026001-0.0109863,0.0359993-0.0170288l2.0620003-1.282959l2.1480026,5.1029663
		c-2.0419998-0.6369934-3.9660034-1.0459595-5.663002-1.0459595c-0.7259979,0-1.3470001,0.0539551-1.9339981,0.1559448
		C7.933876,41.2890129,7.6808777,40.776989,7.433876,40.2810173 M11.1438751,54.6699944
		c-0.4500008,1.0589905-0.8930016,1.5149841-0.9610023,1.5799866c-0.0089989,0.007019-0.0129967,0.0120239-0.0169983,0.0140076
		c-1.5079994,1.3619995-4.0480003,1.2940063-5.7790031,0.5230103c-0.9860001-0.4380188-1.5979996-1.0509949-1.6009979-1.6000061
		l0.0090027-0.1539917c0.2350006-1.131012,2.9690018-4.007019,7.8989983-4.0660095
		C10.9838753,51.9000053,11.515873,53.7949944,11.1438751,54.6699944 M12.0058746,54.7839775
		c0.2929993-0.9879761-0.0180016-2.4440002-0.4049988-3.7569885c1.0849991,0.1560059,2.5239983,0.6149902,4.2199974,1.3470154
		C14.258873,53.2169914,12.9608765,54.0829887,12.0058746,54.7839775 M58.8308716,52.3740044
		c1.6959991-0.7320251,3.1350021-1.1910095,4.2190018-1.3470154c-0.387001,1.3129883-0.6980057,2.7690125-0.4049988,3.7579956
		C61.6898727,54.0829887,60.3938675,53.2169914,58.8308716,52.3740044 M70.2638702,56.7869987
		c-1.7310028,0.769989-4.2709961,0.8379822-5.7789993-0.5230103c-0.0039978-0.0019836-0.0069962-0.0050049-0.0130005-0.0100098
		c-0.0619965-0.0599976-0.5110016-0.5139771-0.9649963-1.5839844c-0.3720016-0.8760071,0.159996-2.7720032,0.4489975-3.7030029
		c4.9309998,0.0589905,7.6640015,2.9349976,7.8990021,4.0660095l0.010994,0.1539917
		C71.8628693,55.7360039,71.2498703,56.3489799,70.2638702,56.7869987 M72.1308746,50.270977
		c-0.2430038,0.901001-0.314003,2.0730286-0.3210068,3.0470276c-1.3559952-1.5470276-4.1629944-3.2090149-8.0039978-3.2090149
		c-1.6139984,0-4.1650009,0.8439941-7.3779984,2.4420166l-0.1500015,0.072998
		c-1.3440018,0.6380005-6.0859985,2.8409729-10.6719971,4.3979797c-4.3460007,1.4779968-7.4950027,1.6260071-8.0950012,1.6410217
		h-0.1989975h-0.0050049H37.145874c-0.5890045-0.0130005-3.743-0.1600037-8.1009979-1.6410217
		c-4.5860023-1.5570068-9.3280029-3.7599792-10.6720009-4.3979797l-0.1500015-0.072998
		c-3.2129974-1.5980225-5.7639999-2.4420166-7.3779984-2.4420166c-3.8409996,0-6.6479988,1.6619873-8.0030022,3.2090149
		c-0.0079956-0.973999-0.0789948-2.1470032-0.3219986-3.0470276c-0.3270035-1.2119751-1.1839981-2.7659912-1.5550003-3.4079895
		c0.6500016-0.6109924,2.5159988-2.2909851,4.090004-3.04599c1.9329987-0.928009,3.0639954-1.3160095,5.0629959-1.3160095
		c3.9319992,0,9.2840004,2.3389893,14.4599991,4.6000061c3.7820015,1.6539917,7.3549995,3.2149963,10.3500023,3.8829956
		l0.2269974,0.052002c0.3200035,0.0759888,0.6840019,0.1619873,1.2280006,0.2309875
		c0.5130005,0.0640259,0.7919998,0.0750122,0.9700012,0.0750122c0.1220016,0,0.4020004-0.0109863,0.9150009-0.0750122
		c0.5439987-0.0690002,0.9069977-0.1549988,1.2279968-0.2309875l0.2269974-0.052002
		c2.9940033-0.6679993,6.5670013-2.2290039,10.3499985-3.8829956c5.1750031-2.2610168,10.5279999-4.6000061,14.4599991-4.6000061
		c1.9990005,0,3.1300049,0.3880005,5.0630035,1.3160095c1.572998,0.7550049,3.4410019,2.4349976,4.0899963,3.04599
		C73.3148727,47.5049858,72.4578705,49.0590019,72.1308746,50.270977"/>
	<path fill="#7B5A3E" d="M37.3745728,47.7910881h-0.0060043c-1.4049988,0-3.5199966-0.3969727-8.5529976-3.3269958
		c-5.2589989-3.0649719-7.894001-5.1409607-9.6009979-9.3459778c-1.682003-4.1419678-2.307003-9.1749878-2.307003-18.572998
		c0-9.0300283,0.3700027-16.0709839,0.3730011-16.1400146c0.007-0.1159668,0.0600014-0.223999,0.1469994-0.2999878
		c0.0870018-0.0759888,0.2010002-0.1149902,0.3170013-0.1029663c9.4770012,0.8459473,15.493,0.9719849,18.2359962,0.9719849
		c0.913002,0,1.3720016-0.0140381,1.3769989-0.0150146c0.0330048,0.0009766,0.4920044,0.0150146,1.4050064,0.0150146
		c2.7439957,0,8.7599945-0.1260376,18.2369995-0.9719849c0.112999-0.0120239,0.2289963,0.0269775,0.3160019,0.1029663
		c0.0879974,0.0759888,0.1409988,0.184021,0.1469955,0.2999878c0.0029984,0.0690308,0.3740005,7.1099854,0.3740005,16.1400146
		c0,9.3980103-0.6259995,14.4310303-2.3079987,18.572998c-1.7070007,4.2050171-4.3420029,6.2810059-9.5999985,9.3459778
		C40.8945694,47.3941154,38.780571,47.7910881,37.3745728,47.7910881 M18.1095734,0.890088
		c-0.0800018,1.6740112-0.3510017,7.9350586-0.3510017,15.6550283c0,9.276001,0.6090012,14.2230225,2.2449989,18.2520142
		c1.6140022,3.9749756,4.1550026,5.9689941,9.2410011,8.9299622c4.8860016,2.8480225,6.9090004,3.2130127,8.1239967,3.2130127
		h0.0060043c1.2169952,0,3.2389984-0.3649902,8.125-3.2130127c5.0859985-2.960968,7.6259995-4.9549866,9.2399979-8.9299622
		c1.637001-4.0289917,2.2440033-8.9760132,2.2440033-18.2520142c0-7.7219839-0.2700043-13.9810171-0.348999-15.6550283
		c-9.2560043,0.8130494-15.1580048,0.9360352-17.8720016,0.9360352c-0.9110031,0-1.3790054-0.0150146-1.4020004-0.0159912
		c0,0-0.4690018,0.0159912-1.3800049,0.0159912C33.2675705,1.8261232,27.3655701,1.7031374,18.1095734,0.890088"/>
	<path fill="#7B5A3E" d="M52.3077774,30.1547966c-1.9730072,0-3.3270035,0.8550415-4.5210037,1.6110229
		c-0.9860001,0.6210327-1.8389969,1.1600342-2.9469986,1.1600342s-1.9599991-0.5390015-2.9459991-1.1600342
		c-1.1949997-0.7559814-2.5480042-1.6110229-4.5240021-1.6110229c-1.9729996,0-3.3259964,0.8550415-4.5209961,1.6110229
		c-0.9860001,0.6210327-1.8380013,1.1600342-2.9470024,1.1600342c-1.1069984,0-1.9589996-0.5390015-2.9459991-1.1600342
		c-1.1949997-0.7559814-2.5480003-1.6110229-4.5229988-1.6110229c-1.0300026,0-1.8889999,0.2360229-2.6469994,0.56604
		c0.1909981,0.8410034,0.4099998,1.632019,0.6629982,2.375c0.6040001-0.3030396,1.2299995-0.5079956,1.9860001-0.5079956
		c1.269001,0,2.1730003,0.572998,3.2220001,1.2340088c1.1409988,0.7199707,2.4329987,1.5369873,4.2449989,1.5369873
		c1.8129997,0,3.1060028-0.8170166,4.2460022-1.5369873c1.0480003-0.6610107,1.9529991-1.2340088,3.2239952-1.2340088
		c1.2700043,0,2.1750031,0.572998,3.2220001,1.2340088c1.1409988,0.7199707,2.4349976,1.5369873,4.2460022,1.5369873
		c1.8119965,0,3.1049957-0.8170166,4.2460022-1.5369873c1.0479965-0.6610107,1.9519958-1.2340088,3.2249985-1.2340088
		c0.7549973,0,1.3799973,0.2049561,1.9840012,0.5079956c0.2529984-0.742981,0.4720001-1.5319824,0.6629944-2.3740234
		C54.1997757,30.3908195,53.3397751,30.1547966,52.3077774,30.1547966"/>
	<path fill="#7B5A3E" d="M25.6563759,28.3478508c1.1409988,0.7200317,2.4339981,1.5370483,4.2459984,1.5370483
		s3.1049995-0.8170166,4.2449989-1.5370483c1.0480003-0.6619873,1.9539986-1.2339478,3.2250023-1.2339478
		c1.2689972,0,2.173996,0.5719604,3.2220001,1.2339478c1.1409988,0.7200317,2.4339981,1.5370483,4.2459946,1.5370483
		c1.8110046,0,3.1040039-0.8170166,4.2450027-1.5370483c0.0559998-0.0359497,0.1080017-0.0679932,0.163002-0.1019897
		c-1.0100021-0.3150024-8.1790009-2.4599609-8.1880035-2.4649658c-1.8529968-0.5230103-3.2859955-0.8859863-3.7080002-0.8859863
		h-0.026001c-0.9809952,0-7.3799973,1.9509888-11.8389969,3.3469849
		C25.5433731,28.2758904,25.5993729,28.3119011,25.6563759,28.3478508"/>
	<path fill="#7B5A3E" d="M52.3077774,35.6296501c-1.9730072,0-3.3270035,0.8540039-4.5210037,1.6100464
		c-0.9860001,0.6229858-1.8389969,1.1599731-2.9469986,1.1599731s-1.9599991-0.5369873-2.9459991-1.1599731
		c-1.1949997-0.7560425-2.5480042-1.6100464-4.5240021-1.6100464c-1.9729996,0-3.3259964,0.8540039-4.5209961,1.6100464
		c-0.9860001,0.6229858-1.8380013,1.1599731-2.9470024,1.1599731c-1.1069984,0-1.9589996-0.5369873-2.9459991-1.1599731
		c-1.1949997-0.7560425-2.5480003-1.6100464-4.5229988-1.6100464c-0.3040009,0-0.5880013,0.026001-0.8630028,0.0610352
		c0.5080032,0.9299927,1.1030006,1.7379761,1.8080025,2.4860229c0.8159981,0.1969604,1.5089989,0.6329956,2.2789993,1.1189575
		c1.1409988,0.7200317,2.4329987,1.5369873,4.2449989,1.5369873c1.8129997,0,3.1060028-0.8169556,4.2460022-1.5369873
		c1.0480003-0.6619873,1.9529991-1.2329712,3.2239952-1.2329712c1.2700043,0,2.1750031,0.5709839,3.2220001,1.2329712
		c1.1409988,0.7200317,2.4349976,1.5369873,4.2460022,1.5369873c1.8119965,0,3.1049957-0.8169556,4.2460022-1.5369873
		c0.7689972-0.4859619,1.4639969-0.9219971,2.2799988-1.1189575c0.7049942-0.7480469,1.298996-1.5560303,1.8079987-2.4850464
		C52.8977737,35.6556511,52.6117706,35.6296501,52.3077774,35.6296501"/>
	<path fill="#7B5A3E" d="M40.727272,42.41856c-0.9580002-0.6459656-1.9500046-1.3149719-3.3580017-1.3149719
		c-1.2030029,0-2.0880051,0.6140137-2.9420013,1.2070007c-0.8149986,0.565979-1.6539993,1.1429749-2.9459991,1.4089966
		c1.2519989,0.6619873,2.25,1.1080017,3.0579987,1.4069824c0.4820023-0.2739868,0.9039993-0.5599976,1.2750015-0.8169861
		c0.711998-0.4940186,1.1339951-0.7740173,1.5579987-0.7740173c0.6309967,0,1.1429977,0.3250122,1.9940033,0.9000244
		c0.2979965,0.2009888,0.6239929,0.4199829,0.9889984,0.6359863c0.7910004-0.302002,1.7589951-0.743988,2.9539948-1.3770142
		C42.2582703,43.4415703,41.5042648,42.9425774,40.727272,42.41856"/>
	<polygon fill="#7B5A3E" points="45.9058762,3.8819704 46.293869,5.2569704 47.6768723,4.9770021 46.8308716,6.1280031 
		47.9258728,7.0459719 46.4998703,7.0969973 46.4638748,8.5299807 45.5288696,7.4580202 44.3908691,8.3120241 44.6398697,6.9190187 
		43.2698746,6.5559816 44.5098724,5.8839846 43.94487,4.5839968 45.2528687,5.1319704 	"/>
	<polygon fill="#7B5A3E" points="39.985878,8.653882 38.7778778,7.9088869 39.133873,9.2829103 37.8038712,9.7529421 
		39.0998764,10.3249025 38.6378708,11.6599245 39.8938751,10.9948854 40.6498718,12.1999025 40.909874,10.790906 
		42.3268738,10.962903 41.3878708,9.8869143 42.4038773,8.8809328 40.9938736,8.9409304 40.8248749,7.5229006 	"/>
	<polygon fill="#7B5A3E" points="50.1324768,9.4446535 48.8534698,8.832654 49.3514709,10.1606569 48.0794754,10.766675 
		49.427475,11.1996584 49.1064758,12.5786867 50.288475,11.7837038 51.1644745,12.9036989 51.2754745,11.4756594 
		52.703476,11.4997072 51.6564713,10.5257082 52.5624695,9.4206667 51.1654739,9.6266603 50.849472,8.2346926 	"/>
	<polygon fill="#7B5A3E" points="45.6990738,12.1072512 44.3480682,12.1602907 45.4210663,12.9903078 45.0370712,14.2812624 
		46.1480713,13.5163088 47.267067,14.2812624 46.8840714,12.9762697 47.9550705,12.1602907 46.6090698,12.1283083 
		46.1510696,10.8492556 	"/>
	<polygon fill="#7B5A3E" points="43.3329773,16.103466 41.9739761,15.6984987 42.6739731,16.931469 41.5089722,17.728466 
		42.9099731,17.9464836 42.8099747,19.3574944 43.850975,18.3894768 44.8929749,19.3574944 44.777977,17.9284782 
		46.1919708,17.728466 45.0069733,16.931469 45.7279739,15.6984987 44.3809738,16.1214714 43.850975,14.794507 	"/>
	<path fill="#7B5A3E" d="M37.473671,23.4562492c1.5069962,0,15.8519974,4.6020508,16.2679977,4.7260132
		c0.4160004,0.1240234,1.7839966,0.6790161,1.7839966-0.4879761c0-1.164978-1.9020004-1.7349854-7.4749985-4.401001
		c-5.5719986-2.6640015-9.2089996-4.5540161-10.5589981-4.5540161s-4.9860001,1.8900146-10.5589981,4.5540161
		c-5.5730019,2.6660156-7.4750023,3.2360229-7.4750023,4.401001c0,1.1669922,1.368,0.6119995,1.7840004,0.4879761
		c0.4150009-0.1239624,14.7009964-4.7260132,16.2070007-4.7260132H37.473671z"/>
	<path fill="#7B5A3E" d="M5.3496742,46.9637871c-0.0950012-0.2049866-0.151001-0.3410034-0.1640015-0.4169922
		c0.0040016-0.0090027,0.0299988-0.0410156,0.197998-0.1629944l-0.112999-0.1590271
		c-0.1489983,0.0830078-0.2719994,0.1480103-0.3689995,0.1960144c-0.098999,0.0499878-0.2089996,0.098999-0.348999,0.1919861
		l0.112999,0.1590271c0.1349983-0.0650024,0.2019997-0.0720215,0.223999-0.0780029
		c0.0040016,0.0019836,0.0209999,0.0099792,0.0510025,0.0579834c0.0649986,0.1029968,0.2519989,0.4680176,0.5559998,1.0840149
		l0.1339989,0.2019958l0.0690002,0.1409912c-0.2130013-0.0979919-0.4830017-0.2340088-0.8160019-0.4140015
		c-0.487999-0.2640076-0.9089966-0.4989929-1.2929993-0.7120056l-0.3419991,0.184021
		C3.1896744,47.265789,3.096674,47.3067741,2.952673,47.4007988l0.1120014,0.1609802
		c0.1359978-0.0549927,0.1779976-0.065979,0.2099991-0.0690002l0.0369987-0.0239868l0.0229988,0.0629883
		c0.0180016,0.0240173,0.0470009,0.0760193,0.0880013,0.1570129l0.5299988,1.0559998
		c0.0750008,0.1529846,0.1350021,0.2779846,0.1780014,0.375c0.0740013,0.17099,0.1189995,0.2810059,0.1349983,0.3259888
		l0.0300026-0.0090027l-0.026001,0.0870056c-0.0060005,0.0079956-0.0439987,0.0339966-0.1940002,0.1530151l0.0859985,0.1749878
		l0.0290031-0.0150146c0.1579971-0.0899963,0.2849998-0.1559753,0.3810005-0.2039795l0.3339996-0.1920166l-0.0690002-0.1399841
		l-0.0419998-0.0119934L4.766674,49.3027763c-0.0279999,0.0150146-0.0760002,0.0310059-0.1420021,0.0540161l0.0089989,0.0289917
		l-0.0719986-0.0379944c-0.0130005-0.0169983-0.0480003-0.0690002-0.1339989-0.2290039
		c-0.1020012-0.1919861-0.1980019-0.3760071-0.2859993-0.5549927l-0.2560005-0.4530029l-0.1720009-0.3479919
		c0.968998,0.5339966,1.7229996,0.9359741,2.2589989,1.1940002c0.0920029-0.0280151,0.1819992-0.0550232,0.2730026-0.0780029
		l0.0289993-0.0700073c-0.0940018-0.1579895-0.3310013-0.6260071-0.7070007-1.3860168
		C5.5186729,47.3247795,5.4466743,47.1707878,5.3496742,46.9637871 M5.2586708,46.2667961
		c-0.0029984,0.0009766-0.0059967,0.0009766-0.0079994,0.0039978c0.0020027-0.0030212,0.0040016-0.0030212,0.007-0.007019
		L5.2586708,46.2667961z M4.5936737,46.6257744l0.0029984,0.0080261L4.591671,46.6257744H4.5936737z M5.7216721,48.2227898
		c-0.0530014-0.0249939-0.1209984-0.0580139-0.1809998-0.0870056c0.0559998,0.0190125,0.1150017,0.04599,0.1669998,0.0580139
		L5.7216721,48.2227898z M2.9936733,47.4147758l0.0039997,0.0079956l-0.0049992-0.0079956H2.9936733z M4.8656731,49.4267998
		H4.8636742H4.8656731z M4.7816734,49.3287773l0.0009995,0.0010071L4.780674,49.3307915H4.7796707
		C4.7796707,49.3297844,4.780674,49.3297844,4.7816734,49.3287773 M3.6896744,47.7157707
		c0.1909981,0.105011,0.3659973,0.2020264,0.5399971,0.2960205c-0.1679993-0.0840149-0.3379974-0.1679993-0.5219994-0.2590027
		L3.6896744,47.7157707z"/>
	<path fill="#7B5A3E" d="M8.5297737,47.8822746c-0.052002,0.0119934-0.0849991,0.0130005-0.0849991,0.0130005l-1.6490021-2.1570129
		l-0.2449989,0.0930176l-0.1040001,2.2729797c-0.0130005,0.1800232-0.0200005,0.2840271-0.0250015,0.3120117l-0.0409966,0.0840149
		c-0.0050011,0.0039978-0.0280037,0.0179749-0.1580009,0.0979919l0.0540009,0.1829834l0.7729988-0.2569885L6.9687729,48.348278
		c-0.093998,0.0229797-0.1599998,0.0339966-0.2410011-0.0030212c-0.0079994-0.0259705-0.0169983-0.1049805-0.0129967-0.3309937
		L6.6967735,47.801281l0.7779999-0.25l0.2540016,0.367981c0.0529976,0.0750122,0.0699997,0.1140137,0.0739975,0.1630249
		c-0.0049973,0.0039978-0.0329971,0.0239868-0.2140007,0.1159973l0.0830002,0.1749878l1.0110016-0.3269958L8.603775,47.8712578
		L8.5297737,47.8822746z M7.3597717,47.3452568c-0.0049973,0.0020142-0.0129967,0.0040283-0.0179977,0.0050049
		c0.0050011-0.0029907,0.0099983-0.0050049,0.0159988-0.0079956L7.3597717,47.3452568z M6.6987724,47.5372734l0.0090027-0.230011
		l-0.0010033,0.2290039C6.7037735,47.5362663,6.7017746,47.5372734,6.6987724,47.5372734 M7.0277748,47.4172783
		c-0.1080017,0.0310059-0.1990013,0.0599976-0.2639999,0.1019897c-0.0110016,0.0039978-0.0240021,0.0069885-0.0349998,0.0110168
		l0.0419998-0.960022l0.4409981,0.5670166l0.1300011,0.1820068C7.2487717,47.3492851,7.1457748,47.3812675,7.0277748,47.4172783
		 M7.0117722,48.5022697v-0.0050049l0.0020027,0.0050049H7.0117722z M7.690773,48.3342705l0.0149994-0.0039978l-0.0149994,0.006012
		V48.3342705z M8.6447754,48.0262566l-0.0010033-0.0039978l0.0020027,0.0039978H8.6447754z"/>
	<path fill="#7B5A3E" d="M10.0563698,45.2410088L10.00037,45.1939812c-0.0489998,0.0130005-0.0979996,0.0240173-0.1469994,0.0310059
		c-0.0919991,0.0150146-0.2739983,0.0379944-0.5470009,0.0700073l-0.6579971,0.0769958
		C8.38237,45.4029961,8.203373,45.4229851,8.1103706,45.428997c-0.0579987,0.0050049-0.1110001,0.0069885-0.1619987,0.0069885
		l-0.0429993,0.0580139c0.0159988,0.0629883,0.0279999,0.1220093,0.0379982,0.177002
		c0.0050011,0.0329895,0.0250015,0.1809998,0.0929985,0.46698l0.1620026-0.0489807
		c-0.0100021-0.1100159-0.0139999-0.2080078-0.0100021-0.2990112l0.0480003-0.0629883
		c0.0870018-0.0190125,0.1889992-0.0350037,0.3050003-0.0490112l0.2000008-0.052002
		c0.007,0.0360107,0.0289993,0.2109985,0.0659981,0.5220032l0.1340027,1.1480103
		c0.0400009,0.3399963,0.0439987,0.4559937,0.0400009,0.4920044c-0.0030022,0.0289917-0.0130005,0.0499878-0.0290031,0.0619812
		c-0.0079994,0.007019-0.0459976,0.0249939-0.2389984,0.0859985l0.0219994,0.1889954l0.031002-0.0049744
		c0.1989975-0.0360107,0.375-0.0610046,0.5279999-0.0800171c0.1439972-0.0169983,0.3219986-0.0319824,0.560997-0.0780029
		l-0.0509987-0.1860046c-0.1479988,0.0130005-0.2150002,0.0030212-0.2210007,0
		c-0.019001-0.0099792-0.0330009-0.026001-0.0419998-0.0509949c-0.012001-0.0359802-0.0349998-0.151001-0.0750008-0.4909973
		l-0.1339989-1.1459961c-0.0359993-0.3059998-0.0550003-0.480011-0.0839996-0.4930115l0.2330017-0.0279846
		c0.1229973-0.0140076,0.2299995-0.0230103,0.3519974-0.0240173c0,0,0.0079994,0.0130005,0.0230026,0.0680237
		c0.0219994,0.0869751,0.0399971,0.1789856,0.086998,0.3039856l0.1619987-0.0480042
		c-0.0269966-0.2649841-0.0419998-0.4039917-0.0429993-0.42099C10.0583725,45.3870049,10.0563698,45.3199883,10.0563698,45.2410088
		 M9.821373,47.9349785L9.8203697,47.92799l0.0040016,0.0069885H9.821373z"/>
	<path fill="#7B5A3E" d="M12.5255737,45.6054802c0.007-0.0039978,0.0270004-0.0140076,0.0890007-0.0140076
		c0.0249977-0.0020142,0.0540009,0.0020142,0.1189995-0.0239868l-0.0139999-0.1920166l-0.4090004-0.019989
		c-0.0369987-0.0050049-0.1529999-0.0270081-0.3829994-0.0160217l0.0139999,0.1920166
		c0.1429977,0.0159912,0.1969986,0.0379944,0.2399979,0.0849915c0.0050011,0.0220032,0.0100021,0.0899963-0.0019989,0.2860107
		c-0.0060005,0.0740051-0.0229988,0.2789917-0.0519981,0.6170044l-0.0330009,0.3939819
		c-0.0229988,0.2669983-0.0559998,0.4490051-0.1020012,0.5400085c-0.0419998,0.0880127-0.1100006,0.1579895-0.1989975,0.2070007
		c-0.0900002,0.0509949-0.2100029,0.0690002-0.3520012,0.0570068c-0.1269989-0.0090027-0.2299995-0.0410156-0.3080025-0.0899963
		c-0.0749969-0.0490112-0.1299973-0.1090088-0.1639977-0.1820068c-0.0320015-0.0740051-0.0489998-0.1690063-0.0480003-0.2850037
		c0-0.0549927,0.0099983-0.2009888,0.0299988-0.4330139l0.0540009-0.6719971
		c0.0239983-0.2659912,0.045002-0.4400024,0.0929985-0.5639954c0.0100021-0.0069885,0.0390015-0.0180054,0.1120033-0.0180054
		c0.0279999-0.0009766,0.0599976,0.0010071,0.1289978-0.0229797l-0.0159988-0.1920166l-1.0650024-0.0599976l0.0110016,0.1910095
		l0.2249985,0.0769958c0.0050011,0.0159912,0.0100021,0.0499878,0.0090027,0.1149902
		c-0.0079994,0.1440125-0.0180016,0.3050232-0.0330009,0.4850159l-0.0750008,0.8569946
		c-0.0169983,0.2059937-0.0239983,0.3309937-0.0219994,0.3789978c0,0.0769958,0.0159988,0.1560059,0.045002,0.2430115
		c0.0289993,0.0879822,0.0759964,0.1699829,0.1389999,0.2420044c0.0629997,0.0739746,0.1489983,0.1359863,0.2539978,0.1849976
		c0.1430016,0.065979,0.3009987,0.1059875,0.4679985,0.118988c0.045002,0.0050049,0.0880013,0.0079956,0.1300011,0.0079956
		c0.0930023,0,0.1800003-0.0109863,0.2579994-0.0289917c0.1150017-0.0289917,0.2170029-0.0750122,0.3050003-0.1419983
		c0.0860023-0.0650024,0.1570015-0.1430054,0.2089996-0.2290039c0.052002-0.0859985,0.0920029-0.1929932,0.1170006-0.3179932
		c0.0250015-0.1230164,0.0419998-0.2430115,0.052002-0.3590088l0.0379982-0.4530029
		c0.012001-0.1340027,0.031002-0.3150024,0.0580025-0.5449829C12.481575,45.7304802,12.4965744,45.6604729,12.5255737,45.6054802
		 M12.705574,45.5354729v-0.0010071V45.5354729z M12.686573,45.4044609h-0.0079994H12.686573z M11.955574,45.3724785v0.0050049
		l-0.0009995-0.0050049H11.955574z M11.292572,45.2864799h-0.0009995l0.0009995-0.0010071V45.2864799z M10.2865753,45.2314568
		v0.0030212l-0.0010033-0.0030212H10.2865753z"/>
	<path fill="#7B5A3E" d="M16.8272705,49.3096733c-0.0610008-0.0289917-0.0740013-0.0390015-0.0760002-0.0409851
		l-0.0209999,0.0220032l-0.0050011-0.0910034l0.0010033-0.1889954l-0.0050011-2.4570007l-0.2530022-0.0710144l-1.1229973,1.3739929
		c-0.1590004,0.1910095-0.2649994,0.3200073-0.3190002,0.3840027c-0.1170006,0.1369934-0.1860008,0.2140198-0.2070007,0.2360229
		l0.0219994,0.019989l-0.1040001,0.0220032c-0.0039978,0-0.0289993-0.0030212-0.118-0.0110168l0.0040016-0.0319824
		c-0.0600014-0.0169983-0.0800018-0.0299988-0.1170006-0.0840149c-0.0130005-0.026001-0.0410004-0.1119995-0.0880013-0.2529907
		l-0.2019997-0.7449951c-0.0029984-0.0140076-0.0139999-0.0559998-0.0330009-0.1239929
		c-0.0189972-0.0630188-0.0339966-0.1220093-0.067997-0.1500244c0-0.0029907-0.0010033-0.0050049-0.0010033-0.0069885
		c0.1880035-0.0310059,0.3410034-0.1000061,0.4560013-0.2049866c0.1150017-0.1080017,0.1940002-0.2420044,0.2350006-0.3980103
		c0.0330009-0.132019,0.0320015-0.2539978-0.0060005-0.3630066c-0.0359993-0.1090088-0.0970001-0.1919861-0.1780014-0.2449951
		c-0.0779991-0.0509949-0.1989975-0.0970154-0.3709984-0.1430054c-0.0859985-0.0220032-0.1969986-0.04599-0.3310013-0.072998
		c-0.079998-0.0150146-0.1749992-0.0369873-0.2859993-0.0650024c-0.1299973-0.0339966-0.2299995-0.0599976-0.3099976-0.0849915
		c-0.1380005-0.0419922-0.2190018-0.0660095-0.2790031-0.0500183l-0.0199966,0.1900024
		c0.1669998,0.0550232,0.2039986,0.0820007,0.2179985,0.1100159c0.0019989,0.0159912-0.0040016,0.0740051-0.052002,0.2749939
		l-0.4259987,1.6340027c-0.0279999,0.0950012-0.0509987,0.1669922-0.1119995,0.2550049
		c-0.0209999,0-0.0719986-0.006012-0.2400017-0.0130005l-0.0189972,0.2009888
		c0.1429977,0.0280151,0.2959976,0.0639954,0.4609985,0.1060181c0.1850014,0.0469971,0.3660011,0.0999756,0.5830002,0.1329956
		l0.0209999-0.2010193c-0.098999-0.0279846-0.1570015-0.0469971-0.2130013-0.0979919
		c-0.0019989-0.0109863-0.0019989-0.0429993,0.0170021-0.1319885c0.007-0.03302,0.0410004-0.1800232,0.1030006-0.4380188
		c0.0509987-0.2109985,0.0999985-0.4100037,0.1479988-0.5959778c0.0309982-0.1180115,0.0950012-0.3530273,0.1920013-0.7030029
		c0.0429993-0.1570129,0.0719986-0.256012,0.0569992-0.2799988c0.0480003,0.0029907,0.0979996,0.0099792,0.1479988,0.0239868
		c0.1100006,0.0289917,0.1850014,0.0570068,0.2200012,0.0840149c0.0559998,0.0429993,0.0970001,0.1069946,0.1219978,0.1889954
		c0.0250015,0.0820007,0.0230026,0.1789856-0.0039978,0.2879944c-0.0279999,0.1069946-0.0750008,0.2019958-0.1399994,0.2779846
		c-0.064003,0.0750122-0.1300011,0.1210022-0.1970024,0.1400146c-0.0690002,0.0180054-0.1479988,0.0010071-0.3180008-0.0140076
		l-0.0329971,0.0890198c0.0229988,0.0339966,0.0449982,0.0799866,0.0629997,0.1409912
		c0.0400009,0.1239929,0.0830002,0.2940063,0.132,0.5079956l0.1699982,0.7470093
		c0.0079994,0.0449829,0.012001,0.0820007,0.0349998,0.1389771c0.0839996,0.0180054,0.1680031,0.0360107,0.2530022,0.0580139
		c0.0639992,0.0169983,0.1689987,0.0450134,0.3029976,0.0849915l-0.0009995,0.0079956l0.7450027,0.2460022l0.0379982-0.1900024
		c-0.1549988-0.0650024-0.1870003-0.0939941-0.1920013-0.1459961c0.0100021-0.026001,0.0500031-0.0950012,0.1879997-0.2739868
		l0.1130028-0.1809998l0.7729988,0.2669983l-0.0159988,0.4450073c-0.0020027,0.0910034-0.0110016,0.1340027-0.0390015,0.1749878
		c-0.0130005,0-0.0579987-0.0079956-0.2410011-0.0350037l-0.0369987,0.1889954l0.5419998,0.1870117l0.4519997,0.1849976
		l0.052002-0.2170105L16.8272705,49.3096733z M15.5672722,47.9366875l0.1450005-0.1790161l-0.1380005,0.1830139
		C15.5722694,47.9396782,15.5692711,47.9396782,15.5672722,47.9366875 M16.2132721,48.1466789
		c-0.0920029-0.0310059-0.1949997-0.0669861-0.3100014-0.1099854c-0.1090012-0.0400085-0.2080002-0.07901-0.2879982-0.07901
		c-0.0060005-0.0029907-0.0130005-0.0069885-0.0180016-0.0079956l0.6069984-0.7449951l0.0130005,0.7109985L16.2132721,48.1466789z
		 M16.2122726,48.1746941v0.0039978c-0.0050011-0.0020142-0.0130005-0.0050049-0.019001-0.006012
		C16.2002716,48.173687,16.2062721,48.1746941,16.2122726,48.1746941 M12.4282722,48.1156731
		c0.0019989,0,0.0049973,0,0.007,0.0010071C12.4332695,48.1166801,12.4302711,48.1156731,12.4282722,48.1156731
		 M13.4162712,48.3386955l0.0009995-0.0050049v0.0059814C13.4172707,48.3396721,13.4162712,48.3396721,13.4162712,48.3386955
		 M15.2422714,48.8986931v-0.0039978V48.8986931z M15.885273,49.1706657l0.0139999,0.0040283L15.885273,49.1706657z"/>
	<path fill="#7B5A3E" d="M20.770771,48.5445061l0.0630035-0.2180176l-0.4520035-0.1869812
		c-0.0369987-0.0160217-0.118-0.0580139-0.2819977-0.1170044c-0.0730019,0.0799866-0.1360016,0.1470032-0.1879997,0.197998
		c-0.0530014,0.0539856-0.1959991,0.1910095-0.427002,0.4119873l-0.4160004,0.3999939
		c-0.0830002,0.0810242-0.1959991,0.1960144-0.3129997,0.3340149c-0.0349998,0.0320129-0.0669975,0.0599976-0.105999,0.0970154
		l0.0590019-2.0890198c-0.1070023-0.0379944-0.2110023-0.0799866-0.3130035-0.125
		c-0.0779991-0.0350037-0.2169991-0.1029968-0.4599991-0.1879883l-0.0529976,0.1900024
		c0.0509987,0.0249939,0.1049995,0.0589905,0.1639977,0.0999756l0.0279999,0.0600281
		c-0.0029984,0.0209961-0.0229988,0.0909729-0.125,0.3289795c-0.0789986,0.1849976-0.1720009,0.3970032-0.2789993,0.6350098
		c-0.1189995,0.2649841-0.2039986,0.4509888-0.257,0.5599976c-0.1049995,0.2219849-0.1759987,0.3649902-0.2130013,0.4299927
		c-0.0189972,0.0299988-0.0309982,0.0429993-0.0620003,0.0540161c-0.0079994,0-0.0459976-0.0039978-0.2399979-0.0440063
		l-0.0499992,0.1919861c0.0929985,0.0320129,0.2159996,0.0820007,0.3670006,0.1490173
		c0.1169968,0.052002,0.2290001,0.1080017,0.3779984,0.151001l0.0530014-0.1900024
		c-0.1230011-0.0650024-0.1570015-0.0899963-0.1660004-0.0979919l-0.0530014-0.0290222l0.0369987-0.0579834
		c0.0080032-0.0280151,0.0540009-0.1410217,0.1389999-0.3399963c0.0860023-0.2000122,0.1599998-0.3730164,0.2250023-0.5160217
		l0.1720009-0.4570007l0.1559982-0.3499756l-0.0279999,1.0509949c-0.0050011,0.17099-0.0149994,0.4299927-0.0320015,0.7749939
		c-0.0079994,0.2019958-0.0169983,0.3590088-0.007,0.5039978l0.1360016,0.0379944
		c0.0620003-0.0639954,0.1450005-0.1470032,0.25-0.2489929c0.1710014-0.1700134,0.3030014-0.2969971,0.3959999-0.3869934
		l0.5820007-0.5930176l0.4080009-0.3809814l-0.5460014,1.2149963c-0.1100006,0.2470093-0.1780014,0.3890076-0.2050018,0.4289856
		c-0.0289993,0.0440063-0.0489998,0.0509949-0.0559998,0.0540161c-0.0139999,0-0.0589981-0.0090027-0.2449989-0.052002
		l-0.0499992,0.1900024l0.4720001,0.196991l0.5,0.2399902l0.0680008-0.21698
		c-0.1529999-0.0830078-0.1730003-0.1000061-0.189003-0.15802c0.0090027-0.0349731,0.0430031-0.1299744,0.1000023-0.2799988
		c0.0099983-0.0249939,0.0499992-0.1139832,0.1160011-0.2619934l0.6069984-1.3339844
		c0.0410004-0.0920105,0.0769997-0.1230164,0.1259995-0.1360168c0.0359993,0,0.0900002,0.0169983,0.1609993,0.0490112
		L20.770771,48.5445061z M20.7937737,48.3434868l-0.0130005-0.0059814l0.0130005,0.0050049V48.3434868z M18.6187744,49.49049
		l0.0169983-0.5489807l0.0040016,0.5309753C18.6317711,49.4795036,18.6267738,49.4845085,18.6187744,49.49049
		 M17.9507713,47.1014824l-0.0009995,0.0040283L17.9507713,47.1014824z M16.8867722,49.5485039
		c0.0030022,0.0019836,0.007,0.0029907,0.0100021,0.0050049c-0.0030022,0-0.0080032-0.0020142-0.0100021-0.0020142V49.5485039z
		 M17.577774,49.8264885l0.0039978-0.0079956l-0.0009995,0.0100098
		C17.5797729,49.8285027,17.5787735,49.8285027,17.577774,49.8264885 M18.1887741,47.7574883l-0.0139999,0.5320129
		l-0.012001-0.4729919L18.1887741,47.7574883z M19.9187737,48.5344963l-0.2740021,0.6080017l0.2260017-0.5650024
		L19.9187737,48.5344963z M18.7987747,50.4074821l0.0129967,0.0050049L18.7987747,50.4074821z"/>
	<path fill="#7B5A3E" d="M22.9547729,50.4926872c0.1080017-0.0910034,0.1949997-0.2050171,0.2579994-0.3389893
		c0.0650024-0.1370239,0.0900002-0.2640076,0.0740013-0.3780212c-0.0149994-0.1130066-0.0559998-0.2059937-0.1199989-0.2769775
		c-0.0639992-0.0720215-0.163002-0.1380005-0.295002-0.2010193l-1.1439972-0.5019836l-0.0559998,0.1839905l0.1919975,0.1390076
		c0,0.0090027-0.0039978,0.0279846-0.0200005,0.0709839c-0.0139999,0.0360107-0.053997,0.1239929-0.1170006,0.2659912
		l-0.4389992,0.9460144c-0.1079979,0.2269897-0.2099991,0.4320068-0.3089981,0.6119995
		c-0.0460014,0.0849915-0.0639992,0.1069946-0.0909996,0.1210022c-0.0250015,0-0.0790024-0.0109863-0.2410011-0.0509949
		l-0.0569992,0.1940002c0.1310005,0.052002,0.2669983,0.1109924,0.4059982,0.1759949
		c0.1280022,0.0629883,0.3160019,0.1549988,0.5650024,0.2829895l0.0289993,0.0150146l0.072998-0.2210083l-0.1919975-0.1099854
		l-0.0160027,0.0269775l-0.0159988-0.0809937c0.0019989-0.0189819,0.0169983-0.0679932,0.0719986-0.1910095
		c0.0769997-0.1769714,0.1540031-0.3469849,0.2320023-0.5099792l0.4780006-1.0020142
		c0.0659981-0.1369934,0.1199989-0.2420044,0.125-0.2949829c0.0719986,0.0149841,0.1349983,0.0359802,0.1899986,0.0619812
		c0.1090012,0.052002,0.1739998,0.1260071,0.2000008,0.2290039c0.0249977,0.1040039,0.0009995,0.2330017-0.0709991,0.3860168
		c-0.0690002,0.1459961-0.151001,0.2419739-0.243,0.2890015c-0.0920029,0.0479736-0.1300011,0.0799866-0.3130035-0.0210266
		c-0.0159988-0.0119934-0.0319977-0.0269775-0.0839996-0.0499878l-0.067997,0.0320129l0.0019989,0.019989
		c0.0019989,0.0589905,0,0.1090088,0.0060005,0.1719971c0.0259972,0.0230103,0.0540009,0.0429993,0.0839996,0.0629883
		c0.0289993,0.0180054,0.0599976,0.0350037,0.0929985,0.052002c0.1290016,0.0599976,0.2709999,0.0810242,0.4230003,0.0599976
		C22.7147751,50.641674,22.8467751,50.5836906,22.9547729,50.4926872 M21.742775,48.8356743l-0.0020027,0.0030212
		l0.0010033-0.0030212H21.742775z M20.629776,51.2616692c0.0019989,0.0010071,0.0029984,0.0020142,0.0049973,0.0030212
		c-0.0019989,0-0.0029984-0.0020142-0.0060005-0.0020142L20.629776,51.2616692z"/>
	<path fill="#7B5A3E" d="M24.4471741,52.7650871c-0.007-0.0270081-0.0209999-0.1149902-0.0419998-0.2630005
		c-0.0009995-0.0100098-0.0079994-0.0830078-0.019001-0.2189941l-0.0470009-0.5509949
		c0-0.0140076-0.0039978-0.0559998-0.0099983-0.1280212c-0.007-0.0679932-0.0110016-0.1329956-0.0219994-0.164978
		c0.1829987,0,0.3400002-0.0410156,0.4679985-0.1230164c0.132-0.0829773,0.2330017-0.2019958,0.2989998-0.3479919
		c0.0579987-0.1229858,0.0789986-0.243988,0.0610008-0.3590088c-0.0180016-0.1139832-0.0610008-0.2049866-0.132-0.2720032
		c-0.0670013-0.0639954-0.1790009-0.1319885-0.3400002-0.2059937c-0.0810013-0.0359802-0.1850014-0.0799866-0.3129997-0.1319885
		c-0.0760002-0.0289917-0.1650009-0.0670166-0.2700005-0.1149902c-0.1210022-0.0550232-0.2150002-0.1000061-0.2799988-0.1330261
		c-0.1340027-0.0690002-0.2190018-0.1139832-0.276001-0.1029968l-0.0530014,0.1820068
		c0.1580009,0.0870056,0.1879997,0.118988,0.1959991,0.1459961c-0.0019989,0.0220032-0.0209999,0.0830078-0.0999985,0.2640076
		l-0.7099991,1.5299988c-0.045002,0.0899963-0.0800018,0.1549988-0.151001,0.2319946
		c-0.0110016,0-0.0519981-0.0100098-0.2389984-0.0549927l-0.0540009,0.1950073
		c0.1349983,0.052002,0.2799988,0.1149902,0.4349976,0.1849976c0.1730003,0.0789795,0.3430023,0.1629944,0.5500031,0.2349854
		l0.0569992-0.1950073c-0.0349998-0.0169983-0.1409988-0.0690002-0.1940002-0.1339722
		c0.0009995-0.0140076,0.0089989-0.0460205,0.0410004-0.1260071c0.0130005-0.03302,0.0719986-0.1719971,0.1790009-0.4140015
		c0.086998-0.196991,0.1719971-0.3829956,0.2519989-0.5589905c0.0509987-0.11203,0.1559982-0.3310242,0.3139992-0.6590271
		c0.0699997-0.144989,0.1170006-0.2389832,0.1049995-0.2639771c0.0489998,0.0119934,0.0960007,0.0289917,0.1420021,0.0499878
		c0.1279984,0.0580139,0.1809998,0.0979919,0.2019997,0.1220093c0.0470009,0.0509949,0.0760002,0.1210022,0.0859985,0.2059937
		c0.0110016,0.0849915-0.0079994,0.1799927-0.0550003,0.2839966c-0.0470009,0.1019897-0.1100006,0.1860046-0.1870003,0.2489929
		c-0.0769997,0.0620117-0.1499977,0.0970154-0.2369995,0.1020203c-0.0680008,0-0.1539993-0.026001-0.2929993-0.0710144
		l-0.0470009,0.0830078c0.0170021,0.0359802,0.0289993,0.0870056,0.0359993,0.1489868
		c0.0180016,0.131012,0.031002,0.3050232,0.0400009,0.5240173l0.0349998,0.7630005
		c0,0.0469971-0.0029984,0.0849915,0.0090027,0.1470032c0.079998,0.0309753,0.1589966,0.0639954,0.237999,0.1009827
		c0.0690002,0.0310059,0.1779976,0.0849915,0.3289986,0.1589966l0.0279999,0.0130005l0.0699997-0.2229919
		C24.4911728,52.842083,24.475174,52.8270988,24.4471741,52.7650871 M23.5391731,49.6870842h-0.0009995H23.5391731z
		 M22.4521713,52.125103c0,0,0.0020027,0.0019836,0.0040016,0.0029907c-0.0019989,0-0.0029984-0.0010071-0.0029984-0.0010071
		L22.4521713,52.125103z M23.3831749,52.5220757l0.0029984-0.0069885l-0.0009995,0.0069885H23.3831749z"/>
	<path fill="#7B5A3E" d="M25.4442749,53.2762871l-0.0090027-0.0849915c0.0060005-0.0369873,0.0330009-0.1159973,0.0860023-0.2349854
		l0.4469986-1.0390015c0.0099983-0.0230103,0.0800018-0.177002,0.2099991-0.4660034
		c0.0370026-0.0840149,0.064003-0.1400146,0.0790024-0.1700134c0.0319977-0.0650024,0.0509987-0.0910034,0.1139984-0.1149902
		c0.0229988,0.0019836,0.137001,0.0469971,0.2190018,0.0480042l0.0499992-0.197998
		c-0.1669998-0.0630188-0.3409996-0.1329956-0.5240021-0.2130127c-0.1629982-0.0709839-0.3059998-0.1380005-0.4699974-0.1849976
		l-0.0530014,0.1940002c0.1310005,0.0639954,0.1689987,0.0859985,0.1940002,0.1409912
		c-0.0099983,0.0410156-0.0439987,0.1350098-0.1030006,0.2850037c-0.0279999,0.0690002-0.0929985,0.2189941-0.1949997,0.45401
		L25.1672745,52.4333c-0.052002,0.118988-0.1130028,0.2479858-0.182003,0.3850098
		c-0.0459976,0.09198-0.0739975,0.1439819-0.1289978,0.1679993c-0.0180016-0.0030212-0.0779991-0.026001-0.2200012-0.0480042
		l-0.0509987,0.1959839c0.1289978,0.0460205,0.2749977,0.1040039,0.4360008,0.1740112
		c0.1849976,0.0820007,0.3569984,0.1600037,0.5169983,0.2399902l0.0279999,0.0140076l0.0660019-0.2250061
		c-0.1189995-0.0539856-0.1570015-0.0759888-0.1690025-0.0849915L25.4442749,53.2762871z M26.6012726,51.0343132
		c-0.0019989-0.0010071-0.0050011-0.0040283-0.007-0.0040283c0.0019989,0,0.0050011,0.0010071,0.007,0.0030212V51.0343132z
		 M25.661274,50.6583061l-0.0019989,0.0069885l0.0009995-0.0079956L25.661274,50.6583061z M24.6242752,53.1162834
		c0.0019989,0.0010071,0.0049973,0.0010071,0.007,0.0030212c-0.0020027,0-0.0050011-0.0020142-0.0080032-0.0020142
		L24.6242752,53.1162834z"/>
	<path fill="#7B5A3E" d="M29.6370735,52.4478569l0.0540009-0.2200012l-0.4630013-0.164978
		c-0.0359993-0.0150146-0.1199989-0.0509949-0.2859993-0.1029968c-0.0699997,0.0859985-0.1290016,0.1559753-0.1780014,0.2109985
		c-0.0509987,0.0539856-0.1849976,0.1990051-0.4049988,0.4329834l-0.3950005,0.4200134
		c-0.0789986,0.0849915-0.1870003,0.2059937-0.2960014,0.348999c-0.0329971,0.0350037-0.0629997,0.0650024-0.0999985,0.1009827
		l-0.0489998-2.0869751c-0.1080017-0.0340271-0.2140007-0.0690002-0.3190002-0.1090088
		c-0.0789986-0.0320129-0.2229996-0.0910034-0.4690018-0.1650085l-0.0429993,0.1929932
		c0.0510025,0.0220032,0.1080017,0.0550232,0.1690025,0.0910034l0.0159988-0.0239868l0.0159988,0.0809937
		c-0.0039978,0.0379944-0.0400009,0.1489868-0.1089973,0.3359985c-0.0700035,0.1900024-0.1520004,0.4060059-0.2460022,0.6480103
		c-0.105999,0.2729797-0.1809998,0.4639893-0.2280006,0.5740051c-0.093998,0.2279968-0.1569977,0.3739929-0.1909981,0.4400024
		c-0.0149994,0.0309753-0.0279999,0.0449829-0.0590019,0.0589905c-0.0109978,0-0.0529976-0.006012-0.2409973-0.03302
		l-0.0400009,0.1940002c0.0949974,0.0270081,0.218998,0.0720215,0.3740005,0.131012
		c0.1189995,0.04599,0.2339973,0.0950012,0.3849983,0.131012l0.0439987-0.1910095
		c-0.1279984-0.0610046-0.1619987-0.0830078-0.1709976-0.0920105l-0.0540009-0.0249939l0.0320015-0.0599976
		c0.007-0.0279846,0.0480003-0.1430054,0.1219978-0.3450012c0.0760002-0.2059937,0.1410027-0.3819885,0.1990013-0.5289917
		l0.1469994-0.4640198l0.1380005-0.3579712l0.026001,1.0499878c0.0039978,0.1730042,0.007,0.4309998,0.0089989,0.776001
		c0.0019989,0.2000122,0.0009995,0.3609924,0.0180016,0.5029907l0.1389999,0.03302
		c0.0579987-0.0680237,0.1369972-0.1560059,0.2360001-0.2620239c0.1629982-0.1789856,0.2879982-0.3139954,0.375-0.4079895
		l0.5499992-0.6210022l0.3889999-0.4029846l-0.4820023,1.243988c-0.1209984,0.3110046-0.1660004,0.4089966-0.1829987,0.4379883
		c-0.0270004,0.0440063-0.0460014,0.053009-0.0550003,0.0559998c-0.019001,0-0.0699997-0.0109863-0.2449989-0.039978
		l-0.0410004,0.1919861l0.4819984,0.1730042l0.5130005,0.2149963l0.0550003-0.2219849
		c-0.1450005-0.0690002-0.1730003-0.0859985-0.1969986-0.1470032c0.007-0.0370178,0.0359993-0.131012,0.0859985-0.2850037
		c0.0100021-0.0270081,0.0439987-0.1159973,0.1030006-0.2700195l0.5359993-1.3609924
		c0.0369987-0.0939941,0.0709991-0.1260071,0.125-0.1430054c0.0359993,0,0.0900002,0.0140076,0.1580009,0.0420227
		L29.6370735,52.4478569z M29.6510735,52.2458611l-0.0159988-0.0050049l0.0169983,0.0040283L29.6510735,52.2458611z
		 M27.5390739,53.5048637l-0.0159988-0.7369995l0.0349998,0.7170105
		C27.551075,53.4918633,27.5460739,53.4978752,27.5390739,53.5048637 M26.7480736,51.152874l-0.0019989,0.0059814
		l0.0009995-0.0059814H26.7480736z M25.8120728,53.652874c0.0030022,0,0.0079994,0.0029907,0.0110016,0.0029907
		c-0.0030022,0.0010071-0.0079994-0.0019836-0.0110016-0.0010071V53.652874z M26.5170746,53.8938713l0.0029984-0.0069885
		l-0.0009995,0.0090027C26.5190735,53.8958855,26.5170746,53.8948784,26.5170746,53.8938713 M26.9970741,51.8558769
		l0.0219994-0.059021l0.0139999,0.53302L26.9970741,51.8558769z M28.787075,52.481884l-0.243,0.6269836l0.197998-0.5799866
		L28.787075,52.481884z M27.7660751,54.4088554l0.0149994,0.007019l-0.0149994-0.006012V54.4088554z"/>
	<path fill="#7B5A3E" d="M31.8755722,53.1799736l0.0550003-0.0390015c0.0230026,0,0.0670013,0.0050049,0.1879997,0.0100098
		l0.0250015-0.1919861l-0.3950005-0.1040039c-0.0349998-0.0110168-0.1459999-0.0490112-0.3719978-0.0940247l-0.026001,0.1920166
		c0.137001,0.04599,0.1860008,0.0769958,0.2179985,0.1319885c0.0009995,0.0180054-0.0060005,0.07901-0.0610008,0.2780151
		c-0.0209999,0.0709839-0.0789986,0.2709961-0.1759987,0.5960083l-0.112999,0.3769836
		c-0.0779991,0.2579956-0.1479988,0.4299927-0.2099991,0.5090027c-0.0600014,0.0780029-0.1400032,0.131012-0.2380028,0.1610107
		c-0.0970001,0.0329895-0.2179985,0.026001-0.3569984-0.0150146c-0.1209984-0.0360107-0.2159996-0.0879822-0.281002-0.151001
		c-0.0649986-0.0650024-0.105999-0.1369934-0.1229973-0.2120056c-0.0180016-0.0799866-0.0160027-0.1739807,0.0089989-0.2890015
		c0.0130005-0.0559998,0.052002-0.1929932,0.118-0.4189758l0.1920013-0.6460266
		c0.0769997-0.2579956,0.1349983-0.4229736,0.1699982-0.4919739l0.0680008-0.0460205
		c0.0390015,0,0.0979996,0.0110168,0.2109985,0.0140076l0.0460014-0.1539917l-0.0499992-0.0450134l-1.0020027-0.2689819
		l-0.0279999,0.190979l0.2040024,0.1210022c0.0019989,0.0240173-0.0030022,0.0620117-0.0149994,0.1140137
		c-0.0360031,0.1409912-0.0800018,0.2940063-0.1310005,0.46698l-0.2480011,0.8260193
		c-0.0589981,0.1959839-0.0929985,0.3179932-0.1009979,0.3630066c-0.0139999,0.0759888-0.0160027,0.1599731-0.0050011,0.25
		c0.0109978,0.0929871,0.0400009,0.1809998,0.086998,0.2639771c0.0470009,0.0840149,0.118,0.1629944,0.2110023,0.2330017
		c0.125,0.0920105,0.2700005,0.1650085,0.4329987,0.2140198c0.1280022,0.0379944,0.2470016,0.0569763,0.3570023,0.0569763
		l0.0279999-0.0009766c0.1169968-0.0030212,0.2269974-0.0280151,0.3269997-0.0760193
		c0.098999-0.04599,0.1839981-0.1069946,0.2529984-0.1820068c0.0690002-0.0739746,0.1290016-0.1699829,0.1790009-0.2879944
		c0.0489998-0.1149902,0.0900002-0.2279968,0.1240005-0.3389893l0.1299973-0.4349976
		c0.038002-0.1289978,0.0940018-0.302002,0.1669998-0.5220032C31.8395729,53.2549858,31.8675728,53.191967,31.8755722,53.1799736
		 M32.1055756,52.9799919l-0.012001-0.0020142l0.012001,0.0010071V52.9799919z M31.3975754,52.7989922l-0.0020027,0.0069885
		l0.0009995-0.0069885H31.3975754z M30.7655754,52.5799675l-0.0130005-0.0039978l0.0130005,0.0020142V52.5799675z
		 M29.7915726,52.3199883v0.0029907V52.3199883z M30.5355759,55.3469658c0.0009995,0,0.0019989,0.0010071,0.0029984,0.0010071
		l-0.0029984,0.0039978V55.3469658z"/>
	<path fill="#7B5A3E" d="M34.4699745,53.4399834c-0.0509987,0.0970154-0.0970001,0.1759949-0.1349983,0.2380066
		c-0.0390015,0.0629883-0.144001,0.2299805-0.3170013,0.5019836l-0.3110008,0.4860229
		c-0.0619965,0.0969849-0.1439972,0.2359924-0.2259979,0.3979797c-0.026001,0.0390015-0.0499992,0.0740051-0.0789986,0.1180115
		l-0.4350014-2.0419922c-0.112999-0.0130005-0.223999-0.0290222-0.3339996-0.0500183
		c-0.0839996-0.0149841-0.2360001-0.0469971-0.4910011-0.0740051l-0.007,0.1970215
		c0.0550003,0.0130005,0.1160011,0.0319824,0.1829987,0.0589905l0.0420036,0.0509949
		c0.0019989,0.0249939-0.0040016,0.1069946-0.045002,0.348999c-0.0330009,0.2000122-0.0740013,0.427002-0.1209984,0.684021
		c-0.0540009,0.2869873-0.0920029,0.4889832-0.118,0.6049805c-0.0489998,0.2420044-0.0850029,0.3970032-0.1060028,0.4670105
		c-0.0079994,0.026001-0.0169983,0.04599-0.079998,0.0709839c-0.0359993,0-0.0960007-0.0039978-0.2110023,0.0120239
		l-0.0029984,0.196991c0.0979996,0.0100098,0.2290001,0.0289917,0.3919983,0.0589905
		c0.1260033,0.0240173,0.2460022,0.0509949,0.4030037,0.0580139l0.007-0.1970215
		c-0.1400032-0.0359802-0.1760025-0.0519714-0.1850014-0.0579834l-0.0579987-0.0150146l0.0219994-0.0639954
		c0.0009995-0.0289917,0.0189972-0.151001,0.053997-0.3630066c0.0370026-0.2139893,0.0700035-0.3999939,0.0990028-0.5559998
		l0.0579987-0.4839783l0.0699997-0.375l0.2200012,1.026001c0.0349998,0.1659851,0.0859985,0.42099,0.1520004,0.7599792
		c0.0379982,0.197998,0.0680008,0.3540039,0.1110001,0.4920044l0.1419983,0.006012
		c0.045002-0.0760193,0.105999-0.177002,0.1840019-0.3009949c0.1269989-0.2050171,0.2249985-0.3619995,0.2929993-0.4690247
		l0.4239998-0.7129822l0.3079987-0.4680176l-0.243,1.3110046c-0.0489998,0.2640076-0.0820007,0.4179993-0.0979996,0.4630127
		c-0.0179977,0.0499878-0.0349998,0.0629883-0.0680008,0.0679932c-0.0379982,0-0.1009979-0.0069885-0.223999,0.006012
		l-0.0039978,0.1949768l1.0479965,0.1970215l0.0139999-0.2290039c-0.1639977-0.0419922-0.1889992-0.0540161-0.2209969-0.1059875
		c0-0.0380249,0.0109978-0.1370239,0.0319977-0.2970276c0.0040016-0.0279846,0.0209999-0.1219788,0.0510025-0.2839966
		l0.2749977-1.4369812c0.0180016-0.098999,0.0460014-0.1380005,0.0650024-0.1520081
		c0.0169983-0.0119934,0.0839996-0.0220032,0.1939926-0.0010071l0.0530014,0.0110168l0.0110016-0.2290039l-0.4849968-0.0740051
		C34.732975,53.480999,34.6439743,53.4599724,34.4699745,53.4399834 M33.3779755,55.2169914L33.1239777,54.007l0.2699966,1.1859741
		C33.3879776,55.2029839,33.383976,55.2079887,33.3779755,55.2169914 M32.1659775,53.05299l-0.0010033,0.0039978V53.05299
		H32.1659775z M31.7089767,55.6809807c0.0019989,0,0.0060005,0.0010071,0.0079994,0.0010071
		c-0.0019989,0.0010071-0.0060005,0-0.0079994,0.0010071V55.6809807z M32.4459763,55.7899895l0.0019989-0.0100098v0.0110168
		C32.4479752,55.7909966,32.4469757,55.7909966,32.4459763,55.7899895 M32.5519753,53.6339836l0.1119995,0.5230103
		l-0.1240005-0.4580078L32.5519753,53.6339836z M34.4159775,53.9799919l-0.1220016,0.6579895l0.0859985-0.6040039
		L34.4159775,53.9799919z M33.7689743,56.0649834l0.0100021,0.0010071L33.7689743,56.0649834z M35.2209778,53.5889702
		l-0.0090027-0.0009766h0.0090027V53.5889702z"/>
	<path fill="#7B5A3E" d="M37.4843674,53.869976L37.4843674,53.869976c0.137001,0.0029907,0.25,0.0249939,0.3359985,0.0679932
		c0.0870056,0.0440063,0.1660004,0.1109924,0.2280045,0.1820068c0.0069962,0.0839844,0.010994,0.197998,0.0410004,0.3670044
		l0.1579971-0.026001c0.0070038-0.1239929,0.0199966-0.257019,0.038002-0.401001
		c0.0110016-0.0889893,0.0250015-0.1640015,0.0429993-0.2229919l-0.0250015-0.0610046
		c-0.1559982-0.0679932-0.2929993-0.1180115-0.4120026-0.1459961c-0.1199951-0.0270081-0.2559967-0.0420227-0.4389954-0.0450134
		c-0.4199982,0-0.7529984,0.1279907-0.9910049,0.3800049c-0.2439957,0.2569885-0.3709946,0.5969849-0.3779984,1.0079956
		c-0.0039978,0.2390137,0.0340042,0.4649963,0.1119995,0.67099c0.052002,0.1370239,0.1269989,0.2660217,0.223999,0.3840027
		c0.0970001,0.1199951,0.2190018,0.2160034,0.3610001,0.2900085c0.1809998,0.0910034,0.3920059,0.1380005,0.6270065,0.1409912
		l0.0429993,0.0010071c0.1469955,0,0.2719955-0.0140076,0.3740005-0.0429993
		c0.109993-0.0299988,0.237999-0.0880127,0.3909988-0.1870117l0.072998-0.223999l-0.0569992-0.0650024l-0.0210037,0.0130005
		c-0.1159973,0.0690002-0.223999,0.1170044-0.3209991,0.1450195c-0.0909958,0.0249939-0.1909943,0.0379944-0.3069992,0.0379944
		h-0.0009995c-0.1640015-0.0020142-0.3040009-0.0350037-0.4179993-0.0960083
		c-0.0820007-0.0449829-0.1669998-0.117981-0.2480011-0.21698c-0.0830002-0.098999-0.1480026-0.2260132-0.1959991-0.3770142
		c-0.0490036-0.1499939-0.0719986-0.3299866-0.0690002-0.5329895c0.0059967-0.3340149,0.0849991-0.5950012,0.2369995-0.7780151
		C37.0343704,53.9599724,37.2303696,53.869976,37.4843674,53.869976 M37.4483719,56.4279594
		c0.0009995,0,0.0019989-0.0009766,0.0019989-0.0009766v0.0029907L37.4483719,56.4279594z"/>
	<path fill="#7B5A3E" d="M40.8786697,54.2684746c-0.0389938-0.1169739-0.0879974-0.223999-0.147995-0.3179932
		c-0.0610046-0.0960083-0.1450043-0.1869812-0.2490005-0.2730103c-0.1070023-0.0849915-0.2259979-0.1489868-0.3530045-0.1849976
		c-0.1719971-0.0469971-0.359993-0.0589905-0.560997-0.0379944c-0.2009964,0.0240173-0.3860016,0.0800171-0.5500031,0.1700134
		c-0.1289978,0.0700073-0.2439957,0.1739807-0.3449936,0.3129883c-0.1010056,0.1360168-0.1720047,0.2980042-0.2140045,0.4819946
		c-0.0400009,0.184021-0.0479965,0.3970032-0.0209961,0.6329956c0.034996,0.3059998,0.1159973,0.5600281,0.2419968,0.757019
		c0.125,0.1940002,0.2860031,0.3379822,0.4790039,0.4239807c0.1429977,0.0650024,0.3050003,0.0980225,0.4819946,0.0980225
		c0.0579987,0,0.1190033-0.0030212,0.1809998-0.0110168c0.2300034-0.0269775,0.4319992-0.0929871,0.6030045-0.2019958
		c0.1230011-0.0809937,0.2309952-0.1889954,0.3190002-0.321991c0.0889969-0.1329956,0.1520004-0.2820129,0.1869965-0.4440002
		c0.0480042-0.2170105,0.0589981-0.4490051,0.0309982-0.6929932C40.9446716,54.5164909,40.9176712,54.3844719,40.8786697,54.2684746
		 M40.3936768,55.4834709c-0.0390015,0.1830139-0.1060028,0.3180237-0.2000046,0.4030151
		c-0.0940018,0.0840149-0.2080002,0.1340027-0.3379974,0.1489868c-0.1399994,0.0160217-0.2680054-0.0069885-0.3800049-0.072998
		c-0.1119995-0.0650024-0.2139969-0.1889954-0.3029938-0.3710022c-0.0890045-0.1819763-0.1520004-0.4239807-0.1850052-0.7179871
		c-0.0239944-0.2030029-0.0199966-0.394989,0.0110016-0.5679932c0.0289993-0.1690063,0.0930023-0.3040161,0.189003-0.3990173
		s0.2220001-0.1529846,0.3730011-0.1699829c0.0339966-0.0030212,0.0659943-0.006012,0.0970001-0.006012
		c0.0899963,0,0.1669998,0.0159912,0.2299957,0.0480042c0.0859985,0.0440063,0.1650009,0.1130066,0.2360001,0.2049866
		c0.0719986,0.0920105,0.1320038,0.2130127,0.1809998,0.3530273c0.0490036,0.1429749,0.0839996,0.3049927,0.1050034,0.4809875
		C40.4386749,55.0744743,40.43367,55.2984734,40.3936768,55.4834709"/>
	<path fill="#7B5A3E" d="M43.5869675,54.6728935c-0.0149994-0.0720215-0.010994-0.0880127-0.0089951-0.0900269
		c0.0049973-0.0159912,0.0270004-0.0419922,0.1059952-0.1109924l-0.0669937-0.1459961l-0.9780045,0.2709961l0.0719986,0.1750183
		c0.1480026-0.0250244,0.2440033-0.0370178,0.3320007-0.0299988c0.0050049,0.0079956,0.0220032,0.0429993,0.0610046,0.1999817
		l0.0379944,0.1750183c0.0220032,0.0959778,0.0350037,0.1609802,0.0500031,0.1679993
		c-0.0550003,0.0479736-0.112999,0.0889893-0.173996,0.1209717c-0.0610046,0.03302-0.1270065,0.0580139-0.1930008,0.0740051
		c-0.2340012,0.059021-0.4599991,0-0.6730042-0.1679993c-0.2149963-0.1730042-0.3689957-0.4440002-0.4580002-0.8049927
		c-0.0810013-0.3299866-0.0660019-0.6119995,0.0419998-0.8370056c0.1080017-0.223999,0.2919998-0.3670044,0.5460052-0.4299927
		c0.1110001-0.0270081,0.2139969-0.0379944,0.3069992-0.0280151c0.0939941,0.0090027,0.1819992,0.0320129,0.260994,0.0690002
		c0.0340042,0.0150146,0.0680008,0.0370178,0.0940018,0.0559998c0.0159988,0.0350037,0.0320053,0.07901,0.0480042,0.1330261
		c0.0239944,0.0759888,0.0400009,0.1349792,0.086998,0.1959839l0.1500015-0.0650024
		c-0.0470047-0.2819824-0.0709991-0.4809875-0.0719986-0.5960083l-0.0440063-0.0619812
		c-0.1009979-0.0240173-0.2319946-0.0370178-0.4029999-0.0390015c-0.1689987,0-0.3460007,0.0209961-0.526001,0.0660095
		c-0.147995,0.0369873-0.2819977,0.0849915-0.3999939,0.1459961c-0.1190033,0.0610046-0.2280045,0.1409912-0.3240051,0.2380066
		c-0.098999,0.0979919-0.1790009,0.2159729-0.2419968,0.348999c-0.0620041,0.1329956-0.1009979,0.2839966-0.1149979,0.4449768
		c-0.0139999,0.1589966,0.0039978,0.3430176,0.0529938,0.5400085c0.0580063,0.2359924,0.1490021,0.4429932,0.2730026,0.6170044
		c0.0800018,0.1139832,0.1809998,0.2139893,0.3000031,0.2990112c0.1199951,0.0859985,0.2559967,0.1469727,0.4039993,0.1849976
		c0.0979996,0.0229797,0.1989975,0.0349731,0.3030014,0.0349731c0.121994,0,0.25-0.0159912,0.3809967-0.0479736
		c0.1480026-0.0360107,0.2939987-0.0920105,0.4339981-0.1640015c0.1389999-0.0710144,0.3000031-0.1750183,0.487999-0.3430176
		c-0.0339966-0.0969849-0.0619965-0.1919861-0.0849991-0.2859802
		C43.6389694,54.9198723,43.6169739,54.8168755,43.5869675,54.6728935 M43.5959702,54.3638725l-0.0090027,0.0010071
		l0.0080032-0.0010071H43.5959702z M42.675972,54.6198845l0.0009995,0.0019836l-0.0019989-0.0019836H42.675972z"/>
	<path fill="#7B5A3E" d="M45.7309647,52.6027031c-0.0719986-0.2139893-0.1119995-0.355011-0.1149979-0.4320068
		c0.0060043-0.0109863,0.0360031-0.0400085,0.215004-0.1409912l-0.0960007-0.1690063
		c-0.1570053,0.0650024-0.2860031,0.1159973-0.387001,0.1530151c-0.1050034,0.0379944-0.2210007,0.0739746-0.3690033,0.1499939
		l0.0930023,0.1699829c0.1279984-0.0429993,0.1879959-0.0499878,0.2320023-0.0499878
		c0.0039978,0.0019836,0.0199966,0.0119934,0.0439987,0.0620117c0.052002,0.1079712,0.197998,0.4909973,0.4319992,1.1409912
		l0.1100006,0.2160034l0.0530014,0.1459961c-0.201004-0.1199951-0.4540024-0.2839966-0.7649994-0.5020142
		c-0.4550018-0.3169861-0.8460007-0.6000061-1.2060013-0.8509827l-0.3600006,0.1430054
		c-0.0610046,0.0219727-0.1580048,0.0519714-0.3110046,0.1289978l0.0920029,0.1729736
		c0.1449966-0.039978,0.1869965-0.04599,0.2030029-0.04599l0.0519943-0.0180054l0.0180054,0.0670166
		c0.0149994,0.0229797,0.0369949,0.0789795,0.0690002,0.1640015l0.4079971,1.1080017
		c0.0579987,0.1609802,0.1029968,0.2919922,0.1350021,0.3929749c0.0550003,0.178009,0.0879974,0.2910156,0.098999,0.3390198
		l0.0289993-0.006012l-0.0339966,0.085022c-0.0070038,0.0049744-0.0420074,0.0249939-0.2110062,0.1279907l0.0670013,0.1860046
		l0.0289993-0.0140076c0.1669998-0.0690002,0.3010025-0.1230164,0.401001-0.1589966l0.2060013-0.0700073l0.1480026-0.0830078
		l-0.0530014-0.1470032l-0.0410004-0.0159912l-0.0279999,0.0110168c-0.0299988,0.0099792-0.0790024,0.0229797-0.1480026,0.0369873
		l-0.0230026,0.0289917h-0.0049973l-0.0329971-0.04599c-0.0169983-0.0240173-0.0530014-0.1059875-0.1080017-0.2430115
		c-0.0800018-0.1999817-0.1529999-0.3939819-0.2210007-0.5820007l-0.2040024-0.4749756l-0.1329956-0.3690186
		c0.9219971,0.6530151,1.6070023,1.1220093,2.1110001,1.4389954c0.0950012-0.0169983,0.1879959-0.0329895,0.2809982-0.0469971
		l0.0370026-0.0669861c-0.0750046-0.1650085-0.2590027-0.6540222-0.5480042-1.4550171
		C45.8589706,52.9796867,45.8039703,52.8197136,45.7309647,52.6027031 M45.7189636,51.8986931
		c-0.0039978,0.0020142-0.0069962,0.0030212-0.0099945,0.0030212c0.0019989-0.0010071,0.0059967-0.0020142,0.0089951-0.0050049
		L45.7189636,51.8986931z M45.0179672,52.1817131l0.0019989,0.0079956l-0.0039978-0.007019
		C45.0159683,52.1826897,45.0169678,52.1817131,45.0179672,52.1817131 M45.9599686,53.8967094
		c-0.0490036-0.0290222-0.1119995-0.0710144-0.1679993-0.1070251c0.0519943,0.0270081,0.1069946,0.0570068,0.1569977,0.0780029
		L45.9599686,53.8967094z M43.3399658,52.7866936l0.0019989,0.0079956l-0.0039978-0.0079956H43.3399658z M44.9739685,54.996685
		l-0.0009995-0.0019836L44.9739685,54.996685z M44.9029694,54.8906975h-0.0019989
		c-0.0009995,0-0.003006,0.0010071-0.003006,0.0010071c0.0009995-0.0010071,0.003006-0.0010071,0.0040054-0.0050049
		L44.9029694,54.8906975z M43.9969711,53.1646843c0.1789932,0.1260071,0.3419952,0.2410278,0.5039978,0.355011
		c-0.1559982-0.1019897-0.3160019-0.2059937-0.4899979-0.3169861L43.9969711,53.1646843z"/>
	<path fill="#7B5A3E" d="M48.3165665,51.6991692c-0.0719986-0.1000061-0.151001-0.1870117-0.237999-0.2600098
		c-0.0839996-0.071991-0.1920013-0.1349792-0.3180008-0.1849976c-0.1189957-0.0480042-0.2549973-0.0799866-0.3919983-0.071991
		c-0.177002,0.0050049-0.3610001,0.0499878-0.5459976,0.1319885c-0.1860046,0.0830078-0.3460007,0.1910095-0.4760056,0.3250122
		c-0.1019974,0.105011-0.1799927,0.2399902-0.234993,0.4020081c-0.0550003,0.1609802-0.0750046,0.3379822-0.0580063,0.5249939
		c0.0139999,0.1879883,0.0710068,0.3930054,0.1679993,0.6099854c0.1240005,0.2820129,0.2780075,0.5010071,0.4550018,0.6480103
		c0.1800003,0.151001,0.3759995,0.2399902,0.5849991,0.2630005c0.0419998,0.006012,0.0830002,0.0079956,0.125,0.0079956
		c0.1720047,0,0.3510056-0.0419922,0.5340042-0.1229858c0.211998-0.0939941,0.3850021-0.2189941,0.5149994-0.3710022
		c0.0940018-0.1159973,0.1640015-0.2520142,0.2089996-0.4049988c0.0449982-0.1530151,0.0599976-0.3139954,0.0449982-0.480011
		c-0.0179977-0.2219849-0.0789948-0.446991-0.177002-0.6679993C48.4535675,51.9151726,48.3875656,51.7981682,48.3165665,51.6991692
		 M47.6105728,53.749157c-0.0420074,0-0.0850067-0.0049744-0.1270065-0.0149841
		c-0.125-0.0280151-0.2599945-0.1159973-0.3999939-0.2619934c-0.1389999-0.1490173-0.2720032-0.3600159-0.3910065-0.631012
		c-0.0830002-0.1869812-0.1369934-0.3710022-0.159996-0.5449829c-0.0220032-0.1710205-0.0009995-0.3200073,0.0629959-0.4390259
		c0.0620041-0.118988,0.1650009-0.2109985,0.3040009-0.2719727c0.0940018-0.0420227,0.1819992-0.0650024,0.2590027-0.0650024
		c0.0230026,0,0.0439987,0.0039978,0.0650024,0.0059814c0.0960007,0.0169983,0.1930008,0.059021,0.2869949,0.1270142
		c0.0950012,0.065979,0.189003,0.1619873,0.2789993,0.2819824c0.090004,0.1220093,0.1710052,0.2650146,0.2430038,0.427002
		c0.1039963,0.2360229,0.1669998,0.4519958,0.1839981,0.6410217c0.0179977,0.1859741-0.0059967,0.3339844-0.0709991,0.4440002
		c-0.0650024,0.1089783-0.1579971,0.1889954-0.2770004,0.242981C47.7815704,53.7291679,47.6945724,53.749157,47.6105728,53.749157"
		/>
	<path fill="#7B5A3E" d="M50.3074722,51.4538078c-0.0530014-0.0599976-0.1070023-0.1060181-0.1610031-0.1380005
		c-0.0540009-0.03302-0.1169968-0.0540161-0.185997-0.0650024c-0.0690002-0.0110168-0.1490021-0.0079956-0.2460022,0.0090027
		c-0.0339966,0.0049744-0.1080017,0.0229797-0.2210007,0.052002c-0.1110001,0.0309753-0.1989975,0.0499878-0.2599945,0.0639954
		c-0.0810013,0.0130005-0.1470032,0.0159912-0.1980057,0.0069885c-0.0449982-0.0079956-0.0879974-0.0279846-0.1279984-0.0629883
		c-0.0410004-0.0339966-0.0790024-0.0870056-0.1169968-0.1589966c-0.0480042-0.1010132-0.0559998-0.2030029-0.0240021-0.3110046
		c0.0309982-0.1069946,0.1100006-0.1910095,0.2350006-0.2530212c0.0839996-0.039978,0.1819992-0.0749817,0.2669983-0.0609741
		c0.0889969,0.0039978,0.1579971,0.019989,0.1999969,0.0449829c0.0350037,0.0509949,0.0850067,0.1419983,0.1930008,0.2870178
		l0.137001-0.1010132c-0.0540009-0.1180115-0.0950012-0.2139893-0.1240005-0.2909851
		c-0.0289993-0.0730286-0.0540009-0.151001-0.0769958-0.2310181l-0.0340042-0.0419922l-0.0810013-0.0180054
		c-0.0799942,0-0.1660004,0.0109863-0.2539978,0.0320129c-0.112999,0.0279846-0.2220001,0.0669861-0.3259964,0.117981
		c-0.1030045,0.0509949-0.1970062,0.1150208-0.2810059,0.1880188c-0.0849991,0.0759888-0.1519928,0.1640015-0.1999969,0.2649841
		c-0.0469971,0.1010132-0.0680008,0.2210083-0.060997,0.3580017c0.0079956,0.1350098,0.0449982,0.2720032,0.1100006,0.4039917
		c0.0459976,0.0930176,0.1039963,0.177002,0.1709976,0.2470093c0.0680008,0.071991,0.1439972,0.1239929,0.2269974,0.1560059
		c0.0839996,0.0329895,0.1790009,0.0449829,0.2820053,0.0319824c0.0669937-0.0079956,0.1999969-0.0329895,0.3999939-0.0769958
		c0.1080017-0.0209961,0.189003-0.0299988,0.2980042-0.0289917c0.0579987,0.006012,0.1090012,0.0280151,0.1529999,0.0639954
		c0.0459976,0.0400085,0.0859985,0.0930176,0.1199951,0.1610107c0.0400009,0.0820007,0.0600052,0.1650085,0.0610046,0.242981
		c0.0009995,0.0780029-0.0250015,0.1520081-0.0750046,0.2220154c-0.0499954,0.0700073-0.1209946,0.1269836-0.2089996,0.17099
		c-0.0859985,0.0410156-0.1749954,0.0610046-0.3199997,0.0610046c-0.1110001-0.0100098-0.2009964-0.0409851-0.262001-0.0830078
		c-0.072998-0.1159973-0.1279984-0.2149963-0.2089996-0.3129883l-0.1369934,0.1010132
		c0.1289978,0.2669983,0.2129974,0.473999,0.2739944,0.6419983c0.0460052,0.0019836,0.090004,0.0039978,0.1320038,0.0039978
		c0.0930023,0,0.177002-0.0079956,0.2529984-0.0209961c0.1100006-0.0200195,0.2279968-0.0600281,0.3499985-0.1210022
		c0.1679993-0.0820007,0.3000031-0.1830139,0.3940048-0.2990112c0.0589981-0.0740051,0.1059952-0.1650085,0.1439972-0.2730103
		c0.0360031-0.1080017,0.0530014-0.2119751,0.0510025-0.3209839c-0.003006-0.1430054-0.0419998-0.2900085-0.1160049-0.4410095
		C50.4094696,51.5908012,50.3614731,51.5167961,50.3074722,51.4538078 M49.0944748,52.4457817h-0.0020065l0.0020065-0.0009766
		V52.4457817z"/>
	<path fill="#7B5A3E" d="M52.7445679,51.0260735l-0.0130005,0.0220032c-0.0709991,0.1140137-0.1429977,0.2070007-0.2149963,0.276001
		c-0.0740051,0.0690002-0.1590042,0.1279907-0.2560043,0.177002c-0.1429977,0.072998-0.2809982,0.1099854-0.4140015,0.1099854
		c-0.0939941,0-0.2029953-0.026001-0.3219986-0.0769958c-0.1169968-0.0480042-0.2340012-0.1279907-0.3479996-0.2409973
		c-0.112999-0.1109924-0.2170029-0.2590027-0.3099976-0.440979c-0.151001-0.2970276-0.2020035-0.5650024-0.1529999-0.7970276
		c0.048996-0.2299805,0.185997-0.4029846,0.4049988-0.5139771c0.1210022-0.0620117,0.2310028-0.0940247,0.336998-0.0960083
		c0.0940018,0,0.1920013,0.0209961,0.2779999,0.0539856c0.0460052,0.0710144,0.1009979,0.1690063,0.2080002,0.3070068
		l0.1279984-0.0979919c-0.0519943-0.1130066-0.1039963-0.2369995-0.1539993-0.3720093
		c-0.0329971-0.0849915-0.0540009-0.1569824-0.0659943-0.21698l-0.0500031-0.0429993
		c-0.1709976,0.0109863-0.3150024,0.0329895-0.4329987,0.0639954c-0.1170044,0.0299988-0.2440033,0.0799866-0.3790054,0.1479797
		c-0.3889999,0.1970215-0.6349945,0.4710083-0.7309952,0.8130188c-0.0960007,0.3429871-0.0490036,0.7009888,0.1360016,1.0679932
		c0.1090012,0.2139893,0.2480011,0.3970032,0.4109955,0.5409851c0.1090012,0.0980225,0.2360001,0.178009,0.3779984,0.2369995
		c0.1389999,0.0580139,0.2900009,0.0870056,0.4450073,0.0870056h0.0099945
		c0.201004-0.0039978,0.4100037-0.0589905,0.6200027-0.164978c0.1459961-0.0740051,0.2649994-0.1520081,0.348999-0.2330017
		c0.0849991-0.0780029,0.1709976-0.1890259,0.2600021-0.3480225l-0.0410004-0.2339783L52.7445679,51.0260735z
		 M51.6265717,52.0030632h0.0009995H51.6265717z"/>
	<path fill="#7B5A3E" d="M54.218071,50.0225945c0.0559998,0.1610107,0.0889969,0.2740173,0.0979996,0.3600159
		c-0.0039978,0.0090027-0.0270004,0.0379944-0.137001,0.1029968c-0.0839996,0.0539856-0.1790009,0.1059875-0.2829971,0.1560059
		c-0.1080017,0.0539856-0.2030029,0.0959778-0.2480011,0.1409912c-0.0320053-0.0559998-0.0680008-0.125-0.1070023-0.20401
		l-0.3710022-0.6879883c0.0569992-0.0379944,0.1340027-0.0800171,0.2290039-0.1270142
		c0.1039963-0.0539856,0.1940002-0.0889893,0.3249969-0.1029968c0.0190048,0.0140076,0.0569992,0.0630188,0.177002,0.2399902
		l0.1330032-0.1009827l-0.4180069-0.7730103l-0.1329956,0.1010132c0.0479965,0.1000061,0.0769958,0.1739807,0.086998,0.2470093
		c0,0-0.012001,0.0139771-0.0749969,0.04599c-0.1380005,0.0749817-0.2170029,0.1159973-0.2389984,0.1279907
		c-0.0720062,0.0350037-0.1420059,0.0670166-0.1730042,0.1080017l-0.1760025-0.3580017
		c-0.1009979-0.1999817-0.1749954-0.368988-0.2399979-0.4700012c0.086998-0.052002,0.1730042-0.1009827,0.2590027-0.1439819
		c0.0919952-0.0450134,0.1879959-0.085022,0.2910004-0.1200256c0.0719986-0.0269775,0.0999985-0.0289917,0.1309967-0.0139771
		c0.0149994,0.0179749,0.0500031,0.072998,0.1760025,0.2509766l0.1279984-0.0950012l-0.2040024-0.5179749l-0.0540009-0.0370178
		l-0.0619965,0.0160217c-0.1100006,0.0499878-0.1839981,0.0829773-0.2200012,0.1019897l-0.2929993,0.1560059
		c-0.1640015,0.0839844-0.310997,0.1600037-0.4449997,0.2269897l-0.5479965,0.3099976l0.1059952,0.1470032
		c0.1380005-0.0580139,0.1910019-0.071991,0.2290039-0.0650024c0.0149994,0.0140076,0.0499954,0.0650024,0.1319962,0.2210083
		l0.5579987,1.1130066c0.0450058,0.0879822,0.1119995,0.2349854,0.2030029,0.4359741
		c0.0490036,0.1100159,0.0830002,0.1890259,0.1009979,0.2200012c-0.0199966,0.052002-0.0499954,0.1080017-0.0929947,0.1950073
		l0.060997,0.1220093l0.0270004-0.0150146c0.298996-0.1589966,0.4599991-0.242981,0.4840012-0.2550049
		c0.0879974-0.0439758,0.25-0.1209717,0.4840012-0.2339783l0.2409973-0.1100159
		c0.1159973-0.0579834,0.2060013-0.1080017,0.2639999-0.1459961l0.0189972-0.0709839
		c-0.072998-0.1490173-0.1549988-0.3399963-0.2879944-0.5950012L54.218071,50.0225945z M54.3400726,49.9665947l-0.0080032,0.0050049
		l0.0059967-0.0079956C54.3400726,49.9655876,54.3400726,49.9665947,54.3400726,49.9665947 M53.9150696,49.858593h0.0019989
		l-0.0019989,0.0020142V49.858593z M53.9920731,49.786602l-0.003006-0.006012L53.9920731,49.786602z M53.6030731,49.0685844
		h-0.003006l0.0019989-0.0009766L53.6030731,49.0685844z"/>
	<path fill="#7B5A3E" d="M56.7387695,49.3629875l-0.0029984,0.0309753l-0.0559998-0.0489807
		c-0.026001-0.0119934-0.1019974-0.0589905-0.2269974-0.1400146l-0.625-0.4539795
		c-0.012001-0.0100098-0.0470047-0.0350037-0.1040039-0.0760193c-0.0530014-0.0369873-0.1039963-0.0769958-0.1469955-0.0749817
		c-0.0009995-0.0020142-0.003006-0.0020142-0.0050049-0.0039978c0.128006-0.1419983,0.2030029-0.2910156,0.227005-0.4460144
		c0.0219955-0.1549988,0-0.3079834-0.0670013-0.4559937c-0.0559998-0.1239929-0.1340027-0.2189941-0.2320023-0.2799988
		c-0.0849991-0.0540161-0.1689987-0.0740051-0.2929993-0.07901c-0.0920029,0.0100098-0.2170029,0.0500183-0.3779984,0.1230164
		c-0.0810013,0.0359802-0.1819992,0.0869751-0.3040009,0.1489868c-0.0719986,0.0400085-0.1600037,0.0820007-0.2639999,0.1289978
		c-0.1210022,0.0570068-0.2170029,0.0979919-0.2840042,0.1260071c-0.1389999,0.0559998-0.2219925,0.0889893-0.2589951,0.1399841
		l0.1029968,0.1600037c0.1430054-0.052002,0.1969986-0.0629883,0.2400055-0.052002
		c0.010994,0.0130005,0.0439987,0.0610046,0.1319962,0.2480164l0.6930008,1.5379944
		c0.038002,0.0920105,0.0650024,0.1619873,0.0780029,0.2650146c-0.0090027,0.0089722-0.0430069,0.0349731-0.1990051,0.144989
		l0.0830002,0.1839905l0.0289993-0.0140076c0.1279984-0.0690002,0.2700043-0.1380005,0.4250031-0.2079773
		c0.1729965-0.07901,0.3470001-0.1540222,0.5370026-0.2630005l-0.1100006-0.1700134
		c-0.0940018,0.0400085-0.1570053,0.0559998-0.2280045,0.0589905c-0.0089951-0.0099792-0.0289993-0.0369873-0.0690002-0.1139832
		c-0.0169983-0.0320129-0.0820007-0.1669922-0.1949997-0.4060059c-0.0919952-0.1959839-0.1780014-0.381012-0.2589951-0.5570068
		c-0.0500031-0.1099854-0.1480026-0.3349915-0.2919998-0.6669922c-0.0650024-0.1489868-0.1040039-0.2460022-0.1310043-0.2539978
		c0.0410004-0.0289917,0.0849991-0.0539856,0.1310043-0.0750122c0.1279984-0.0589905,0.1919937-0.072998,0.2289963-0.072998
		c0.0690002,0,0.1389999,0.0240173,0.2080002,0.0710144c0.0709991,0.0480042,0.1299973,0.1239929,0.177002,0.2269897
		c0.0469971,0.1020203,0.0690002,0.2050171,0.0670013,0.3049927c-0.0040054,0.098999-0.026001,0.1760254-0.0670013,0.2310181
		c-0.0410004,0.0559998-0.1220016,0.1080017-0.2570038,0.1889954l0.0320053,0.0899963
		c0.0379944,0.0110168,0.0830002,0.0350037,0.1369934,0.0700073c0.1090012,0.072998,0.25,0.178009,0.4230042,0.3129883
		l0.5999985,0.4750061c0.0350037,0.0299988,0.060997,0.0559998,0.1149979,0.0870056
		c0.076004-0.0410156,0.1529999-0.0780029,0.2320023-0.1140137c0.0690002-0.0309753,0.1809998-0.0789795,0.3519974-0.1839905
		l-0.1089935-0.1700134C56.7707748,49.3609734,56.7477722,49.3629875,56.7387695,49.3629875 M55.7987747,49.9889641
		l-0.003006-0.0049744l0.0040054,0.0049744H55.7987747z M56.8937759,49.4929619l-0.0020065-0.0029907l0.003006,0.0020142
		C56.8947754,49.4919853,56.8937759,49.4919853,56.8937759,49.4929619"/>
	<path fill="#7B5A3E" d="M58.3188705,48.2616997L58.3188705,48.2616997
		c-0.0049973-0.0110168-0.0069962-0.0180054-0.010994-0.0280151l-0.1440048,0.0840149
		c0.0410004,0.1659851,0.064003,0.2799988,0.0650024,0.3659973c-0.0070038,0.0119934-0.0350037,0.0369873-0.1460037,0.0929871
		c-0.0889969,0.0440063-0.1879959,0.0859985-0.2969971,0.1280212c-0.112999,0.0439758-0.2099991,0.0769958-0.2600021,0.1170044
		c-0.026001-0.0580139-0.0559998-0.1300049-0.086998-0.2130127l-0.3059998-0.7179871
		c0.0599976-0.03302,0.1399994-0.0690002,0.2389984-0.1070251c0.1090012-0.0419922,0.201004-0.0699768,0.3339996-0.0709839
		c0.0139999,0.0119934,0.0470047,0.0599976,0.1529999,0.2529907l0.1420059-0.0870056l-0.3440018-0.8079834l-0.1419983,0.0870056
		c0.0379944,0.1059875,0.0599976,0.1829834,0.0629959,0.2549744c-0.0019989,0.0020142-0.0139999,0.0130005-0.0790024,0.0400085
		l-0.2509995,0.105011c-0.0739975,0.0279846-0.1459961,0.0539856-0.1790009,0.0910034l-0.1449966-0.3710022
		c-0.0810013-0.210022-0.1399994-0.3850098-0.1949997-0.4909973c0.0910034-0.0460205,0.1809998-0.085022,0.2709961-0.1190186
		c0.0950012-0.0369873,0.1960068-0.0679932,0.3010025-0.0939941c0.0630035-0.0159912,0.0930023-0.019989,0.1330032-0.0019836
		c0.0189972,0.0279846,0.0559998,0.1129761,0.151001,0.2669983l0.1369934-0.0840149l-0.1559982-0.5339966l-0.0509949-0.0410156
		l-0.0620041,0.0090027c-0.1159973,0.0390015-0.1910019,0.0670166-0.2289963,0.0810242l-0.3069992,0.1279907
		c-0.1690063,0.0709839-0.3250046,0.1319885-0.4640045,0.1860046l-0.572998,0.2579956l0.0909958,0.1560059
		c0.1350021-0.0420227,0.1920013-0.0500183,0.2350006-0.0440063c0.0110016,0.0140076,0.0419998,0.0620117,0.1110001,0.2319946
		l0.4540024,1.1610107c0.0360031,0.09198,0.0899963,0.243988,0.1610031,0.4530029
		c0.0389938,0.1139832,0.0659943,0.1959839,0.0809937,0.2290039c-0.0239944,0.04599-0.0579987,0.0969849-0.1119995,0.1849976
		l0.0500031,0.1269836l0.0289993-0.0130005c0.3120041-0.1300049,0.4800034-0.1999817,0.5049973-0.2089844
		c0.0920029-0.0350037,0.2600021-0.098999,0.5040054-0.1880188l0.25-0.0889893
		c0.121994-0.0469971,0.2139969-0.0870056,0.2770004-0.1210022l0.0239944-0.0700073
		C58.4838715,48.7056999,58.4208755,48.5116997,58.3188705,48.2616997 M58.2908707,48.2736931l-0.0089951,0.0020142
		l0.0079956-0.0050049C58.2898712,48.2717094,58.2898712,48.2717094,58.2908707,48.2736931 M57.8768768,48.1266899h0.0009995
		H57.8768768z M57.9608765,48.0616875l-0.003006-0.0069885l0.003006,0.0059814V48.0616875z M57.6388779,47.3106804
		L57.6388779,47.3106804z"/>
	<path fill="#7B5A3E" d="M61.5441666,47.8487663l-0.0219955,0.0280151l-0.0450058-0.0580139
		c-0.022995-0.0159912-0.0889969-0.0769958-0.197998-0.1799927c-0.0080032-0.0079956-0.0579987-0.0599976-0.151001-0.1579895
		l-0.3779984-0.4030151c-0.0090027-0.0119934-0.0390015-0.0419922-0.0879974-0.0950012
		c-0.0450058-0.04599-0.0880051-0.0910034-0.1300049-0.1000061c-0.0009995-0.0009766-0.0029984-0.0019836-0.0049973-0.0039978
		c0.151001-0.1159973,0.2539978-0.25,0.3059998-0.3959961c0.0500031-0.1499939,0.0569992-0.3059998,0.0179977-0.4609985
		c-0.0319977-0.1340027-0.0909958-0.2399902-0.1759949-0.3179932c-0.0850067-0.0800171-0.1760025-0.1239929-0.3210068-0.1340027
		c-0.0879974,0-0.2019958,0.0159912-0.345993,0.0509949c-0.0870056,0.0209961-0.1960068,0.0509949-0.326004,0.0910034
		c-0.0769958,0.0249939-0.1729965,0.052002-0.2829971,0.07901c-0.1300049,0.0319824-0.2310028,0.0549927-0.3030014,0.0679932
		c-0.1470032,0.0310059-0.2340012,0.0490112-0.2799988,0.0920105l0.0719986,0.1759949
		c0.0920029-0.0150146,0.1589966-0.0230103,0.2450027-0.0079956c0.0089951,0.0149841,0.0319977,0.0699768,0.0830002,0.2689819
		l0.3969955,1.6400146c0.0200043,0.0969849,0.0330048,0.1730042,0.026001,0.276001
		c-0.0159988,0.0119934-0.0839996,0.0350037-0.2220001,0.1049805l0.0479965,0.1970215l0.0300064-0.0110168
		c0.1389999-0.0419922,0.2910004-0.0849915,0.4559937-0.1239929c0.1850052-0.04599,0.3700027-0.0870056,0.5780029-0.1589966
		l-0.0769958-0.1880188c-0.0990067,0.0220032-0.1600037,0.0340271-0.2350006,0.0150146
		c-0.0080032-0.0100098-0.0230026-0.0390015-0.0470047-0.1239929c-0.0099945-0.0339966-0.0499954-0.1790161-0.1159973-0.434021
		c-0.0550003-0.2099915-0.1050034-0.4079895-0.151001-0.5969849c-0.0289993-0.1180115-0.0839996-0.355011-0.1640015-0.7099915
		c-0.034996-0.15802-0.0569992-0.2590027-0.0820007-0.2730103c0.0460052-0.019989,0.0940018-0.0360107,0.1430054-0.0490112
		c0.0879974-0.0229797,0.1489944-0.0289917,0.2329941-0.0289917c0.0699997,0.0100098,0.1360016,0.0480042,0.1970062,0.1069946
		c0.060997,0.0610046,0.1059952,0.1459961,0.1329956,0.256012c0.026001,0.1119995,0.0289993,0.2139893,0.0080032,0.3110046
		c-0.0210037,0.0969849-0.0579987,0.1699829-0.1080017,0.2160034c-0.0530014,0.0489807-0.1409988,0.0849915-0.2870026,0.1389771
		l0.0130005,0.0950012c0.0370026,0.0180054,0.0790024,0.0500183,0.1220016,0.0939941
		c0.0940018,0.0910034,0.2129974,0.2190247,0.3570023,0.3860168l0.5019989,0.5780029
		c0.034996,0.0429993,0.052002,0.072998,0.0970001,0.1059875c0.0830002-0.0249939,0.1660004-0.0480042,0.25-0.0679932
		c0.0739975-0.0190125,0.1930008-0.0450134,0.3789978-0.1159973l-0.0759964-0.1879883
		C61.5801697,47.8477592,61.5571671,47.8487663,61.5441666,47.8487663 M58.8521652,45.9727592L58.8521652,45.9727592z
		 M60.4911652,48.2897758l-0.0009995-0.006012l0.0029984,0.006012H60.4911652z M61.6601715,48.002758l-0.0010071-0.0019836
		L61.6601715,48.002758z"/>
	<path fill="#7B5A3E" d="M63.3553696,47.1692924L63.3553696,47.1692924
		c-0.0009995-0.0120239-0.0019989-0.0190125-0.0029984-0.0299988l-0.1600037,0.0469971
		c-0.0019989,0.1699829-0.0069962,0.2869873-0.0270004,0.3710022c-0.0079956,0.0059814-0.0379944,0.0249939-0.1639938,0.0529785
		c-0.0970001,0.0209961-0.2050018,0.0370178-0.3199997,0.0509949c-0.1200027,0.0150146-0.2230072,0.0220032-0.2800064,0.0490112
		c-0.010994-0.0629883-0.022995-0.1399841-0.0339966-0.2290039l-0.1190033-0.7689819
		c0.0670013-0.0180054,0.1529999-0.0320129,0.2580032-0.0460205c0.0879974-0.0099792,0.163002-0.0139771,0.2279968-0.0139771
		l0.114006,0.0269775c0.0099945,0.0150146,0.0309982,0.0690002,0.0859985,0.2839966l0.1589966-0.0499878l-0.1350021-0.8680115
		l-0.1589966,0.0490112c0.0110016,0.1109924,0.0130005,0.1910095-0.0019989,0.2630005
		c-0.0019989,0.0010071-0.0169983,0.0100098-0.0859985,0.0190125c-0.1539993,0.0229797-0.2430038,0.0369873-0.2680054,0.039978
		c-0.0789948,0.0100098-0.1559982,0.0150146-0.197998,0.0450134l-0.0469971-0.3959961
		c-0.0279999-0.2230225-0.0429993-0.4070129-0.0690002-0.5240173c0.098999-0.0209961,0.1949997-0.0369873,0.2919998-0.0489807
		c0.0929947-0.0110168,0.1800003-0.0200195,0.3139954-0.0169983c0.0970001,0.0019836,0.1160049,0.0109863,0.1290054,0.0309753
		c0.0079956,0.0220032,0.022995,0.0870056,0.0810013,0.2980042l0.1529999-0.0469971l-0.0190048-0.5579834l-0.034996-0.0460205
		l-0.0630035-0.0139771l-0.0039978,0.0009766c-0.1210022,0.0100098-0.201004,0.0169983-0.2410049,0.0220032l-0.3289948,0.0490112
		c-0.1819992,0.026001-0.3470001,0.0480042-0.4960022,0.0650024l-0.6190033,0.1099854l0.0500031,0.1740112
		c0.1439972-0.0090027,0.2070007-0.0050049,0.237999,0.0159912c0.0100021,0.0180054,0.0270004,0.0780029,0.0510025,0.2520142
		l0.1539993,1.2349854c0.012001,0.098999,0.0270004,0.2579956,0.0449982,0.480011
		c0.0100021,0.118988,0.0149994,0.2059937,0.0220032,0.2399902c-0.0350037,0.0410156-0.0810013,0.0840149-0.1529999,0.1530151
		l0.0159988,0.1340027l0.1689987-0.0240173c0.2460022-0.0369873,0.3820038-0.0549927,0.4029999-0.0589905
		c0.0979996-0.0100098,0.276001-0.0299988,0.5340042-0.0570068l0.2649994-0.0249939
		c0.1299973-0.0150146,0.2299957-0.0329895,0.2979965-0.0490112l0.0410004-0.0610046
		c-0.0189972-0.1569824-0.0329971-0.3580017-0.0699997-0.6229858V47.1692924z M63.3253708,47.1732903l-0.0090027,0.0009766
		l0.0090027-0.0039978V47.1732903z M63.0583725,46.8862724l-0.0009995-0.0079956l0.0019989,0.0079956H63.0583725z
		 M62.9313736,46.0792656h-0.0020065H62.9313736z"/>
	<path fill="#7B5A3E" d="M65.6648712,47.6005669c-0.0189972-0.0219727-0.0670013-0.098999-0.1450043-0.2259827l-0.3649979-0.6799927
		c-0.0069962-0.0130005-0.0270004-0.0510254-0.060997-0.1119995c-0.0309982-0.0580139-0.0600052-0.1119995-0.098999-0.1330261
		c-0.0019989-0.0009766-0.003006-0.0029907-0.0040054-0.0049744c0.177002-0.072998,0.3110046-0.1750183,0.3980026-0.3040161
		c0.0879974-0.1300049,0.1350021-0.2770081,0.137001-0.4389954c0.0039978-0.1369934-0.0250015-0.2550049-0.0859985-0.3529968
		c-0.0620041-0.098999-0.1389999-0.1640015-0.2290039-0.1990051c-0.0899963-0.0310059-0.2220001-0.0499878-0.3949966-0.053009
		l-0.0999985-0.0009766c-0.0690002,0-0.1490021,0.0009766-0.239006,0.0039978
		c-0.0459976,0.0019836-0.0979996,0.0029907-0.1549988,0.0029907l-0.1380005-0.0010071
		c-0.1339951-0.0029907-0.237999-0.0069885-0.3439941-0.0130005c-0.1310043-0.0099792-0.2080002-0.0140076-0.2610016,0.0160217
		l0.0239944,0.1889954c0.1750031,0.0189819,0.2180023,0.0339966,0.2380066,0.0569763
		c0.0069962,0.0190125,0.0139999,0.0840149,0.0119934,0.2810059l-0.0429993,1.6860046
		c-0.0059967,0.1000061-0.0130005,0.1749878-0.0469971,0.2740173c-0.0070038,0.0019836-0.0449982,0.0099792-0.2409973,0.0429993
		l0.0270004,0.1999817c0.0899963-0.0029907,0.1839981-0.0039978,0.2819977-0.0039978l0.1910019,0.0010071
		c0.1909943,0.0069885,0.3799973,0.0140076,0.5979996-0.0020142l-0.0250015-0.2009888
		c-0.0429993-0.0029907-0.1580048-0.0079956-0.2310028-0.04599c-0.0039978-0.0130005-0.0099945-0.0450134-0.0130005-0.132019
		c-0.0009995-0.0359802-0.0009995-0.1849976,0.0009995-0.4509888c0.0020065-0.2160034,0.0050049-0.42099,0.0090027-0.6140137
		c0.0019989-0.1219788,0.012001-0.3649902,0.026001-0.7290039c0.0069962-0.1609802,0.012001-0.2649841-0.0080032-0.2829895
		c0.0450058-0.0090027,0.0810013-0.0109863,0.1500015-0.0130005c0.1149979,0.0029907,0.1930008,0.0140076,0.2340012,0.0320129
		c0.064003,0.0299988,0.1179962,0.0829773,0.1610031,0.1569824c0.0429993,0.0740051,0.0639954,0.1690063,0.060997,0.2820129
		c-0.0019989,0.1099854-0.026001,0.2129822-0.072998,0.303009c-0.0439987,0.0869751-0.098999,0.1479797-0.1600037,0.1799927
		c-0.048996,0.026001-0.1210022,0.0390015-0.2109985,0.0390015L64.4398727,46.37257l-0.0110016,0.0960083
		c0.0289993,0.0270081,0.060997,0.0670166,0.0920029,0.1210022c0.0669937,0.1130066,0.1489944,0.2680054,0.2449951,0.4649963
		l0.3349991,0.6879883c0.0180054,0.0430298,0.0310059,0.07901,0.0660019,0.1290283l0.1640015-0.0020142l0.0960007,0.0010071
		c0.0739975,0.0010071,0.1959991,0.0059814,0.3639984,0.0149841l0.0309982,0.0030212v-0.0320129l-0.0240021-0.2009888
		C65.7348709,47.6525688,65.7128677,47.6435661,65.6648712,47.6005669 M63.5778732,47.805584h0.0029984h-0.0019989H63.5778732z
		 M64.5898743,47.7985649l0.0009995-0.0049744l0.0009995,0.0049744H64.5898743z"/>
	<path fill="#7B5A3E" d="M67.8903656,47.2671013l0.098999-0.4430237c0.0299988-0.1300049,0.0730057-0.3079834,0.1310043-0.5310059
		c0.0719986-0.2769775,0.0979996-0.3539734,0.1069946-0.3699951l-0.0269928-0.0149841l0.0909958-0.026001
		c0.0319977,0,0.0790024,0.0059814,0.177002-0.0050049l0.0110016-0.1910095l-0.4020004-0.0769958
		c-0.0360031-0.0069885-0.1490021-0.0379944-0.3759995-0.0669861l-0.0130005,0.1929932
		c0.1449966,0.0369873,0.1930008,0.0660095,0.2249985,0.1170044c0.0039978,0.0209961-0.0019989,0.0889893-0.0410004,0.2810059
		c-0.0149994,0.0739746-0.0599976,0.2749939-0.1340027,0.6059875l-0.086998,0.3850098
		c-0.0589981,0.2619934-0.1169968,0.4379883-0.1740036,0.519989c-0.0539932,0.0830078-0.1309967,0.1440125-0.2259979,0.1799927
		c-0.0960007,0.0379944-0.2159958,0.0400085-0.3570023,0.0090027c-0.1259995-0.0289917-0.220993-0.071991-0.2899933-0.1319885
		c-0.0699997-0.0589905-0.1160049-0.1270142-0.1380005-0.2030029c-0.0240021-0.0759888-0.0270004-0.1740112-0.0110016-0.2890015
		c0.0069962-0.0549927,0.0370026-0.1960144,0.0889969-0.4249878l0.1460037-0.6570129
		c0.0579987-0.2630005,0.1039963-0.4309998,0.1360016-0.5050049l0.0819931-0.0499878
		c0.038002,0,0.090004,0.0079956,0.1940002-0.0010071l0.0350037-0.1560059l-0.0540009-0.0409851l-1.0169983-0.197998
		l-0.0159988,0.1900024l0.211998,0.1079712c0.0039978,0.0170288,0.0039978,0.0510254-0.0070038,0.1150208
		c-0.0249939,0.1409912-0.0579987,0.2989807-0.0979996,0.4759827l-0.1899948,0.8390198
		c-0.0450058,0.1999817-0.0699997,0.3240051-0.0750046,0.3699951c-0.0089951,0.0780029-0.0049973,0.1610107,0.012001,0.25
		c0.0169983,0.0899963,0.0530014,0.177002,0.1060028,0.2569885c0.0530014,0.0820007,0.1289978,0.1549988,0.2259979,0.2180176
		c0.1310043,0.0839844,0.2819977,0.1459961,0.4469986,0.1829834c0.1030045,0.0240173,0.2020035,0.0339966,0.2939987,0.0339966
		c0.0320053,0,0.0630035-0.0009766,0.0950012-0.0039978c0.1170044-0.0119934,0.2249985-0.04599,0.3199997-0.0979919
		c0.0960007-0.0539856,0.177002-0.1220093,0.239006-0.2009888c0.0629959-0.0750122,0.1159973-0.1760254,0.1579971-0.2980042
		C67.8313675,47.4970818,67.8653641,47.3800774,67.8903656,47.2671013 M68.4443665,45.7100945l-0.0100021-0.0030212
		l0.0100021,0.0020142V45.7100945z M67.7243652,45.5780754l-0.0019989,0.006012v-0.006012H67.7243652z M67.0783691,45.5360832
		l0.0009995-0.0019836v0.0019836H67.0783691z M67.0783691,45.4040947l-0.0159988-0.0039978l0.0159988,0.0019836V45.4040947z
		 M66.0893707,45.211071l-0.0010071,0.0030212V45.211071H66.0893707z"/>
	<path fill="#7B5A3E" d="M71.2064743,46.9121819c-0.0350037-0.0159912-0.1150055-0.0599976-0.2770004-0.1229858
		c-0.0750046,0.0799866-0.140007,0.144989-0.1930008,0.1959839c-0.0540009,0.052002-0.1980057,0.1849976-0.4340057,0.4040222
		l-0.4249954,0.3909912c-0.0839996,0.07901-0.1990051,0.1910095-0.3190002,0.3269958
		c-0.0350037,0.0310059-0.0680008,0.0610046-0.1080017,0.0939941l0.0999985-2.0849915
		c-0.1049957-0.0410156-0.2089996-0.0849915-0.3099976-0.1319885c-0.0770035-0.0370178-0.2160034-0.1070251-0.4560013-0.1980286
		l-0.0569992,0.1880188c0.0500031,0.0270081,0.1050034,0.0619812,0.1620026,0.105011l0.0189972-0.026001l0.0080032,0.0849915
		c-0.003006,0.0249939-0.0300064,0.1019897-0.1320038,0.3269958c-0.0820007,0.1839905-0.1800003,0.3919983-0.2910004,0.6289978
		c-0.125,0.2640076-0.2139969,0.4490051-0.2679977,0.5570068c-0.1100006,0.2189941-0.1839981,0.3599854-0.2220001,0.4219971
		c-0.0179977,0.0319824-0.0309982,0.0440063-0.0630035,0.0549927c-0.0069962,0-0.0469971-0.0039978-0.2389984-0.0480042
		l-0.0530014,0.1900024c0.0920029,0.03302,0.2130051,0.0870056,0.364006,0.1570129
		c0.1149979,0.0549927,0.2249985,0.1119995,0.3739929,0.1579895l0.0570068-0.1879883
		c-0.1220016-0.0679932-0.1550064-0.0939941-0.163002-0.1029968l-0.0530014-0.0290222l0.0370026-0.0569763
		c0.0089951-0.0280151,0.0569992-0.1400146,0.1459961-0.3370056c0.0890045-0.1990051,0.1679993-0.3699951,0.2360001-0.5119934
		l0.1809998-0.4560242l0.1620026-0.34198l-0.0480042,1.0480042c-0.0089951,0.17099-0.0249939,0.4289856-0.0479965,0.7729797
		c-0.0130005,0.2019958-0.0240021,0.3600159-0.0169983,0.5039978l0.1349945,0.0429993
		c0.0630035-0.0629883,0.1490021-0.1439819,0.2540054-0.2449951c0.1759949-0.1659851,0.3119965-0.2909851,0.4049988-0.3769836
		l0.5899963-0.5810242l0.4179993-0.3759766l-0.5699997,1.2049866c-0.112999,0.2430115-0.185997,0.3860168-0.211998,0.4240112
		c-0.0309982,0.0449829-0.0509949,0.052002-0.0579987,0.0529785c-0.0130005,0-0.0569992-0.0099792-0.2419968-0.0569763
		l-0.0559998,0.1889954l0.9639969,0.4559937l0.0719986-0.2160034c-0.0390015-0.0230103-0.1579971-0.0879822-0.185997-0.1610107
		c0.0099945-0.0359802,0.0449982-0.1279907,0.1059952-0.2779846c0.0110016-0.0249939,0.052002-0.1130066,0.1210022-0.2609863
		l0.6330032-1.3190002c0.0439987-0.0930176,0.0789948-0.1230164,0.1269989-0.1360168
		c0.0359955,0,0.0909958,0.0190125,0.163002,0.0540161l0.0479965,0.0229797l0.0680008-0.2160034L71.2064743,46.9121819z
		 M71.6154709,47.1251945l-0.0110016-0.006012l0.0130005,0.0050049L71.6154709,47.1251945z M69.4184723,48.2291985
		l0.0629959-1.2460022l-0.0410004,1.2279968C69.4324722,48.2181816,69.4274673,48.2231865,69.4184723,48.2291985
		 M68.799469,45.8271904l-0.0019989,0.0039978l0.0009995-0.0050049
		C68.7984695,45.8261833,68.7984695,45.8271904,68.799469,45.8271904 M67.68647,48.2531853
		c0.0029984,0.0010071,0.0059967,0.0029907,0.0090027,0.0029907c-0.0019989,0-0.0070038-0.0019836-0.0090027-0.0019836V48.2531853z
		 M68.372467,48.5442009l0.003006-0.007019l-0.0009995,0.0079956C68.3734741,48.5442009,68.372467,48.5442009,68.372467,48.5442009
		 M69.023468,46.4891777l-0.0249939,0.5339966l-0.0020065-0.4759827L69.023468,46.4891777z M70.7364731,47.2981987
		l-0.2840042,0.6009827l0.2360001-0.5579834L70.7364731,47.2981987z M69.5814743,49.1481743l0.0119934,0.006012
		l-0.0130005-0.0050049L69.5814743,49.1481743z"/>
</g>
</svg>
